<svg xmlns="http://www.w3.org/2000/svg" xmlns:xlink="http://www.w3.org/1999/xlink" width="1024" height="768" viewBox="0 0 1024 768">
  <defs>
    <clipPath id="clip-iPad_6">
      <rect width="1024" height="768"/>
    </clipPath>
  </defs>
  <g id="iPad_6" data-name="iPad – 6" clip-path="url(#clip-iPad_6)">
    <rect width="1024" height="768"/>
    <g id="map" transform="translate(305.182 -120.03)">
      <path id="path2830" d="M-23.616,784c-3.93-1.471-5.03-2.911-4.1-5.367.433-1.138,1.263-2.068,1.846-2.068s3.134,1.341,5.67,2.98a48.439,48.439,0,0,0,6.89,3.808l2.28.828-2.8.061c-1.543.033-3.806.206-5.029.384A11.546,11.546,0,0,1-23.616,784Zm-8.921-7.55a3.986,3.986,0,0,0-2.742-.31c-.967.307-1.714-.15-2.429-1.487a5.492,5.492,0,0,0-2.263-2.354c-1.552-.534-4.806-5.806-6.617-10.721-.915-2.483-2.145-4.2-3.605-5.029-2.591-1.474-2.777-2.143-.771-2.779,2.295-.728,2.722-4.773.79-7.486-.922-1.295-1.407-2.815-1.129-3.539.328-.854-.577-2.353-2.767-4.585-2.765-2.817-3.276-3.841-3.4-6.809a10.271,10.271,0,0,0-1.04-4.571c-.62-.746-.746-3.426-.411-8.723a48.294,48.294,0,0,0-.848-14.222c-1.483-7.334-2.241-21-1.856-33.464a33.311,33.311,0,0,0-.766-8.115c-1.226-4.391-6.868-9.934-13.841-13.6-4.987-2.621-5.689-3.293-7.638-7.318a54.123,54.123,0,0,0-5.014-8.1,27.1,27.1,0,0,1-3.811-6.577c-1.646-5.084-4.548-10.193-6.526-11.489a7.974,7.974,0,0,1-2.668-3.986c-.671-2.431-.494-3.11,1.607-6.163,2.278-3.311,2.305-3.446.765-3.849-3.783-.989-2.192-6.046,4.6-14.615,4.513-5.7,5.835-10.034,4.585-15.046-.476-1.91-.9-3.908-.948-4.44s-.384-.967-.754-.967-.3-.7.158-1.551c.7-1.314.526-1.69-1.165-2.46-2.463-1.122-6.183-.013-6.2,1.849-.017,2.232-1,2.4-4.236.71a16.439,16.439,0,0,0-4-1.643c-.467,0-2.284-1.236-4.038-2.747s-3.624-3.091-4.156-3.512a3.662,3.662,0,0,1-.967-2.549,4.968,4.968,0,0,0-1.518-3.158,11.2,11.2,0,0,1-2.4-4.06c-.641-1.941-1.121-2.452-1.731-1.841-1.275,1.275-3.162,1.033-7.743-.993a16.131,16.131,0,0,1-5.886-4.267,13.783,13.783,0,0,0-4.039-3.623c-2.1-1.084-2.62-1.076-5.673.091L-149,537.642l-10.321-5c-6.349-3.076-11.276-6.011-12.8-7.625-2.366-2.5-2.443-2.774-1.655-5.876.721-2.842.6-3.721-.97-6.961a34.788,34.788,0,0,0-4.795-6.963c-1.65-1.79-2.812-3.557-2.583-3.928s-.933-2.868-2.582-5.55a24.783,24.783,0,0,1-3.524-8.7c-.421-3.062-.912-4-2.465-4.706-1.646-.75-2.107-.655-3.049.633-1.328,1.814-.95,3.729,1.985,10.073a38.581,38.581,0,0,1,2.74,8.493,26.435,26.435,0,0,0,2.06,6.725c1.94,3.8.688,3.736-2.372-.127-1.8-2.279-2.292-3.528-1.934-4.957.383-1.526.006-2.261-1.87-3.648-2.845-2.1-3.447-3.46-2.4-5.413.609-1.139.33-2.387-1.218-5.441-1.572-3.1-1.9-4.6-1.511-6.907.636-3.765-1.053-7.173-4.2-8.477-1.818-.753-2.445-1.6-2.815-3.784-.262-1.549-.764-3.944-1.115-5.324-.366-1.435-.339-2.694.062-2.942.386-.238.133-1.3-.561-2.359-1.022-1.56-1.092-2.3-.368-3.886a3.9,3.9,0,0,0,.412-2.739c-.265-.428.395-1.708,1.466-2.843a19.667,19.667,0,0,0,3.168-5.033,30,30,0,0,1,4.6-6.726,35.832,35.832,0,0,0,5.234-8.044c1.417-3.273,2.248-4.29,3.511-4.3.91-.007,1.607.422,1.547.954-.246,2.217,1.506,1.534,3.475-1.354,1.16-1.7,1.787-3.211,1.391-3.353a1.555,1.555,0,0,1-.719-1.423c0-.641-1.6-2.722-3.559-4.625-3.247-3.156-3.456-3.574-2.376-4.767a2,2,0,0,0,.394-2.718c-1.025-1.832.593-5.934,2.347-5.951.724-.007.931-.253.486-.58-1-.733-1.45-2.4-1.31-4.824.224-3.874-.624-5.495-3.5-6.7a28.753,28.753,0,0,1-5.268-3.044,8.944,8.944,0,0,0-3.789-1.864,59.49,59.49,0,0,1-7.475-1.565c-5.42-1.384-6.375-1.439-8.253-.472-3.891,2-8.013,2.819-9.694,1.919-1.261-.675-2.636-.258-7.433,2.251a49.042,49.042,0,0,1-8.595,3.663,33.21,33.21,0,0,0-6.334,2.411c-5.657,2.851-13.761,5.724-16,5.674-1.447-.032-.469-.667,3.38-2.193,6.541-2.594,13.263-5.972,13.885-6.978.766-1.239-.9-1.684-2.893-.774-1.47.67-2.376.607-4.073-.282l-2.182-1.143,2.373-1.227c2.683-1.387,3.527-2.957,2.91-5.413-.6-2.379,2.695-4.126,9.786-5.2,3.81-.575,6.707-1.531,8.657-2.859,3.439-2.341,2.848-4.11-.86-2.574-1.755.727-3.034.735-5.633.035-3.159-.851-3.271-.972-1.858-2.005,2.364-1.729,7.254-2.769,10.467-2.226a8.124,8.124,0,0,0,5.407-.781l2.47-1.277-1.626-1.73a7.594,7.594,0,0,1-1.626-2.185c0-.718,4.658-2.154,6.987-2.154a29.244,29.244,0,0,0,7.082-1.87,82.91,82.91,0,0,1,14.01-3.12c8.065-1.115,9.773-1.129,15.821-.126,3.729.618,8.869,1.356,11.422,1.639a79.328,79.328,0,0,1,10.043,2c6.9,1.893,11.392,1.87,19.1-.1,3.4-.869,6.843-1.372,7.644-1.118a4.535,4.535,0,0,0,3.026-.378c1.19-.637,2.112-.56,3.809.318a10.171,10.171,0,0,0,6,.718,18.3,18.3,0,0,1,8.575,1.187,31.691,31.691,0,0,0,6.531,1.627c1.676,0,1.681.028.218,1.105-1.435,1.056-1.439,1.13-.092,1.652a19.615,19.615,0,0,0,5.983.069c4.542-.475,4.582-.461,5.848,1.988l1.275,2.466,1.655-2.076a12.043,12.043,0,0,1,5.314-3.177c3.178-.956,4.142-.953,7.334.024a17.247,17.247,0,0,0,6.97.65c2.572-.371,3.766-.14,5.444,1.055,2.118,1.508,2.177,1.509,4.056.053a16.671,16.671,0,0,1,4.795-2.282c3.8-1.06,5.093-3.317,2.809-4.917-1.615-1.131-1.544-1.218,2.7-3.3,3.166-1.553,4.592-1.906,5.209-1.288s.611,1.3-.023,2.48c-1.08,2.018.264,5.069,1.949,4.423a3.615,3.615,0,0,1,2.233.012c.977.375.962.693-.115,2.337-2.975,4.54,3.695,3.254,8.21-1.583a6.643,6.643,0,0,1,7.346-1.54c1.722.661,1.56,1.2-1.291,4.328-3.4,3.725-5.136,4.487-10.239,4.487a17.528,17.528,0,0,0-6.735,1.236c-1.878.971-2.794,1.052-4.275.377-2.762-1.258-3.723-.211-1.742,1.9l1.691,1.8-3.374.957a34.377,34.377,0,0,1-6.855,1.071c-2.777.09-3.483.392-3.487,1.489,0,.939-1.355,1.928-4.255,3.114-9.4,3.842-17.372,10.769-14.486,12.586a7.376,7.376,0,0,1,1.908,2.725,4.284,4.284,0,0,0,3.079,2.538,39.582,39.582,0,0,1,6.8,2.717,42.307,42.307,0,0,0,6.964,2.792c3.515.766,3.546.847,1.909,5-1.4,3.553-1.429,4.06-.343,6.159.65,1.258,1.609,2.275,2.13,2.26,2.535-.073,4.912-2.413,6.39-6.289,1.408-3.694,2.049-4.383,6.09-6.541,5.964-3.185,8.443-6.322,7.783-9.845-.43-2.295-.207-2.833,1.757-4.232a13.583,13.583,0,0,0,3.641-4.687c1.71-3.793,4.458-5.107,9.093-4.35,4.11.672,8.97,3.281,9.557,5.131a4.6,4.6,0,0,1-.445,3.03c-.735,1.374-.6,1.954.832,3.475l1.715,1.825,2.8-1.452A47.876,47.876,0,0,0-3.7,387.04l2.685-2.009.631,1.705a4.809,4.809,0,0,1,.219,2.779,3.7,3.7,0,0,0,.392,2.575,2.907,2.907,0,0,1,.1,2.756c-.49.875-.162,2.205,1.083,4.4,1.784,3.141,1.784,3.143.217,4.241-2.061,1.444-.739,2.975,1.524,1.764a5.622,5.622,0,0,1,6.406.389q3.518,3.183-5.83,7.59c-6.77,3.185-9.788,3.816-18.625,3.894-6.525.058-7.389.266-13.734,3.307-3.724,1.785-6.77,3.552-6.77,3.926,0,1.6,1.173,1.458,5.675-.672a23.247,23.247,0,0,1,7.7-2.257c2.781,0,2.883.085,2.014,1.708a11.439,11.439,0,0,1-2.411,2.921c-1.294,1.048-1.37,1.49-.56,3.268,1.215,2.666,4.387,3.949,8.182,3.309l3-.506-2.306,1.591a15.766,15.766,0,0,1-4.642,2.1,31.6,31.6,0,0,0-5.869,2.284c-1.972.994-3.953,1.519-4.486,1.19-1.224-.757.068-1.892,4.046-3.554,3.538-1.478,2.973-3.049-.84-2.334a79.14,79.14,0,0,0-10.7,4.031c-6.87,3.026-8.068,3.825-8.468,5.646-.492,2.238-2.169,3.3-8.065,5.091a15.135,15.135,0,0,0-5.416,3.073,31.221,31.221,0,0,1-4.671,3.72,7.655,7.655,0,0,0-3.131,3.613c-.413,1.745-.509,1.787-1.025.442-.968-2.519-2.427-.056-2.511,4.24-.086,4.4-2.317,7.4-7.21,9.7-5.017,2.357-12.155,7.927-13.6,10.613-1.277,2.371-1.33,3.295-.544,9.39.734,5.686.69,7.112-.276,8.98-.721,1.395-1.563,2.062-2.263,1.793-1.66-.637-3.691-7.469-3.122-10.5.4-2.107.133-2.906-1.437-4.381-1.266-1.189-2.434-1.641-3.427-1.326-.829.263-3.172-.236-5.21-1.109-3.122-1.338-4.119-1.451-6.348-.715a6.277,6.277,0,0,0-3.5,2.761c-.732,1.606-1.216,1.812-3.237,1.377a21.987,21.987,0,0,1-4.466-1.579c-2.83-1.446-4.415-1.345-7.594.483-1.483.853-4.509,2.484-6.724,3.626-2.546,1.312-4.295,2.806-4.754,4.059-.4,1.091-1.826,5.343-3.17,9.449l-2.445,7.466,1.249,4.819c2.294,8.854,5.486,11.5,12.137,10.078,5.014-1.075,8.025-3.254,9.132-6.608.7-2.13,1.461-2.834,3.731-3.464,3.416-.949,4.843-.984,6.155-.151,1.083.687.7,1.818-4.146,12.313-3.326,7.2-3.087,7.846,2.612,7.024,5.192-.749,9.938-.174,10.492,1.271.216.563-.135,4.363-.781,8.445-1.155,7.3-1.147,7.465.516,10.156a12.326,12.326,0,0,0,3.873,3.864c1.917.991,2.518.989,4.93-.019,3.832-1.6,5.913-1.432,8.575.7,2.128,1.7,2.429,1.751,4.1.655a10.78,10.78,0,0,0,3.009-3.582c1.494-2.976,4.011-5.068,6.125-5.091a6.109,6.109,0,0,0,3.423-1.951c2.03-2.161,5.6-2.864,3.857-.76-1.466,1.766-2.3,7.448-1.359,9.213.787,1.47.85,1.462,2.282-.306,1.019-1.259,1.225-2.066.668-2.623-1.329-1.329-.929-2.433,1.544-4.262,2.567-1.9,4.553-1.7,6.769.664,1.624,1.736,10.3,4.082,12.783,3.458,3.785-.95,14.013,5.269,17.856,10.857,1.83,2.661,7.676,5.339,10.246,4.693,5.287-1.327,12.537,3.971,14.232,10.4.5,1.915,1.266,3.7,1.692,3.964,1.129.7-.562,3.482-4.259,7-2.362,2.247-2.926,3.214-2.261,3.878s1.756.082,4.379-2.335c3.814-3.516,5.087-3.872,7-1.962,1.162,1.162,1.127,1.4-.466,3.095a5.984,5.984,0,0,1-2.944,1.885c-.707.028-.421.368.679.807,1.512.6,2.3.434,3.869-.834,4.085-3.3,5.046-3.459,8.674-1.432,2.359,1.318,3.3,2.321,3.185,3.383-.331,2.95.365,3.6,2.411,2.263,1.626-1.065,2.741-1.116,8.181-.371,5.786.792,6.544,1.108,9.32,3.884a16.364,16.364,0,0,0,7.291,4.263c3.91,1.137,4.335,1.483,5.044,4.117,1.028,3.818-.176,8.056-3.435,12.08a39.978,39.978,0,0,0-3.791,5.609,21.287,21.287,0,0,1-3.276,4.5c-1.877,1.877-1.981,2.346-1.513,6.8.914,8.7-3.344,24.945-7.451,28.418-1.337,1.131-2.481,1.4-4.6,1.068-1.743-.27-3.033-.1-3.374.455a11.84,11.84,0,0,1-3.755,2.3,28.388,28.388,0,0,0-5.828,3.651c-2.5,2.135-2.583,2.371-1.742,4.919a10.7,10.7,0,0,1-1.762,9.384,7.5,7.5,0,0,0-1.222,3.627,9.008,9.008,0,0,1-1.794,4.277,78.928,78.928,0,0,0-4.23,6.7c-3.3,5.824-5.277,6.833-10.056,5.121-4.147-1.486-6.359-1.664-6.359-.51,0,.435.827,1.167,1.837,1.627s2.585,2.335,3.5,4.165c1.361,2.725,1.505,3.672.8,5.229-1.1,2.412-5.3,4.437-9.207,4.437-3.46,0-4.318.846-3.123,3.079.738,1.378.241,3.6-1.185,5.3a7.047,7.047,0,0,1-2.692-1.033c-3.259-1.685-4.412-.612-2.765,2.573a6.338,6.338,0,0,0,2.83,2.867c1.524.484,1.541.591.3,1.96a3.06,3.06,0,0,0-.833,2.693c.283.737-.348,2.327-1.544,3.9-1.944,2.549-1.972,2.726-.726,4.628a7.214,7.214,0,0,0,2.471,2.429c2.33.894,2.716,3.949.94,7.432s-2.053,6.987-.675,8.647c1.252,1.509-2.962,4.449-4.857,3.389ZM-89.559,441.343c2.067-4.32,5.914-7.537,9.012-7.537,2.23,0,2.256.362.214,2.957l-1.605,2.041,1.647,1.334c1.327,1.075,2.012,1.168,3.525.478a4.77,4.77,0,0,0,2.352-2.351c.355-1.119.933-1.381,2.3-1.039,1.261.317,2.051.046,2.569-.882,1.572-2.809-2.429-6.4-5.374-4.826-2.107,1.128-4.861-1.116-4.273-3.482a4.8,4.8,0,0,0-1.006-3.428c-1.6-2.111-4.032-2.333-9.357-.855a23.371,23.371,0,0,1-4.853.913c-.754-.029-1.169.274-.922.674s.168.735-.177.744a8.262,8.262,0,0,0-2.551,1.5l-1.925,1.479,2.162.822c1.69.643,2.687.551,4.564-.42,2.206-1.141,2.615-1.14,5.023.008a8.042,8.042,0,0,0,4.434.8c1-.25,2.026-.109,2.287.313s-.823.987-2.489,1.269c-4.528.765-6.881,2.651-10.165,8.147-2.743,4.591-2.9,5.145-1.807,6.359,1.073,1.191,1.369,1.21,2.841.18a16.86,16.86,0,0,0,3.577-5.191Zm14.057,4.776c2.754-1.405,3.019-1.758,2.049-2.729s-1.584-.907-4.742.489c-3.708,1.64-4.884,3.853-2.049,3.853A14.646,14.646,0,0,0-75.5,446.119Zm13.719-5.846c1.612-1.129,1.671-1.35.535-1.986-1.673-.936-6.647.677-6.647,2.156C-67.895,441.966-64.048,441.859-61.783,440.272ZM-3.675,774.4a3.079,3.079,0,0,1,.928-1.547c.511-.511.636-.929.279-.929s-1.067.571-1.578,1.269c-.733,1-1.239,1.088-2.406.41-.835-.484-1.038-.869-.466-.882s.8-.372.535-.8c-.505-.817.823-1.04,4.642-.779,3.409.233,3.752.731,1.645,2.388-1.963,1.544-3.579,1.936-3.579.867Zm646.162-19.418q-3.321-2.1,13.825-9.288a60.159,60.159,0,0,0,10.807-6.214c4.68-3.538,5.069-3.691,6-2.367,1.408,2.01.578,3.465-2.861,5.016a15.879,15.879,0,0,0-4.592,3.192,5.272,5.272,0,0,1-3.154,1.844c-.853,0-2.857,1.173-4.454,2.606-5.467,4.906-12.391,7.224-15.568,5.211Zm-54.149-10.051c-.8-.509-.849-1.034-.193-2.258a10.223,10.223,0,0,0,.854-4.019c0-2.18.176-2.362,1.741-1.812a18.653,18.653,0,0,0,4.449.714c1.489.056,2.977.152,3.306.214,1.282.241-2.145,4.142-5.225,5.947-3.668,2.149-3.516,2.112-4.931,1.215Zm89.407-6.766c-.269-.269.368-1.164,1.416-1.989,1.579-1.242,1.763-1.767,1.073-3.057-1-1.866.485-3.869,3.921-5.292,2.662-1.1,3.332-3.34,2.619-8.74-.491-3.715-.431-3.947.766-2.957.94.777,1.171,1.757.836,3.543-.367,1.958-.037,2.975,1.6,4.915,1.764,2.1,2.288,2.324,3.66,1.59s1.528-.665,1.1.457a8.936,8.936,0,0,0-.5,1.618,9.113,9.113,0,0,1-2.515,1.591,42.616,42.616,0,0,0-6,4.162c-3.114,2.571-6.319,4.648-7.171,4.648a1.629,1.629,0,0,1-.8-.49Zm-81.818-9.993c-1.629-1.734-1.93-1.8-3.5-.775-1.995,1.307-5.743.543-8.747-1.782-1.6-1.241-1.714-1.641-.888-3.185a3.539,3.539,0,0,0,.092-3.639,10.02,10.02,0,0,1-.853-3.384c0-1.875-1.217-1.964-2.225-.163-.415.741-.976,1.126-1.247.855s.625-1.766,1.991-3.322c3.362-3.829,2.05-4.869-2.391-1.895a15.587,15.587,0,0,0-3.755,3.111c-.151.43-1.071-.9-2.044-2.947a14.652,14.652,0,0,0-4.512-5.535c-2.459-1.62-3.292-1.753-8.015-1.283-6.926.689-13.608,2.4-17.982,4.6a30.5,30.5,0,0,1-8.86,2.336,50.313,50.313,0,0,0-10.346,2.449c-4.225,1.59-5.428,1.757-7.569,1.051-2.872-.948-4.065-2.9-2.207-3.614.673-.258,1.893-2.034,2.713-3.945,1.312-3.061,1.384-4.013.606-7.968-.644-3.272-.662-6.369-.066-11.406.45-3.8.622-7.664.382-8.579a10.868,10.868,0,0,1,.831-4.979c1.228-3.215,1.525-3.425,9.826-6.94,4.708-1.994,9.527-3.625,10.709-3.625,3.2,0,7.158-3.043,9.341-7.177,1.349-2.555,2.285-3.528,3.095-3.215,2.26.873,2.706.7,2.532-.974a1.857,1.857,0,0,1,1.272-2.154,9.178,9.178,0,0,0,3.271-3.131,12.261,12.261,0,0,1,4.83-3.878c2.825-1.134,3.106-1.117,4.642.279,2.835,2.577,4.844,3.329,5.8,2.173.466-.562.627-1.243.357-1.514-.886-.886,3.167-5.97,5.147-6.459a29.879,29.879,0,0,0,4.854-1.94c2.5-1.254,3.385-1.338,6.19-.585,6.049,1.624,6.25,1.89,4,5.29-2.894,4.372-2.126,6.082,4.971,11.078,3.277,2.306,6.37,4.056,6.874,3.888s2.1-1.934,3.541-3.924a14.19,14.19,0,0,0,3.046-7.874c.448-4.531,2.615-10.832,3.725-10.832.368,0,1.21,1.863,1.872,4.141a15.828,15.828,0,0,0,3.083,5.906c2.416,2.269,3.819,8.615,2.734,12.364-.719,2.484-.58,2.883,1.883,5.416a35.444,35.444,0,0,1,5.14,8.15A60.677,60.677,0,0,0,635.546,678l2.986,3.95-.849,6.1A27.694,27.694,0,0,1,634.21,698.8c-2.916,5.165-7.276,10.093-9.575,10.823-.827.262-2.741,2.2-4.255,4.308s-3.093,3.831-3.509,3.831-2.186,1.808-3.933,4.018c-2.914,3.686-3.45,4.023-6.486,4.08A9.524,9.524,0,0,0,600.426,728l-2.717,2.072-1.783-1.9ZM218.643,711.9c-1.639-1.639-1.912-2.477-1.546-4.733.345-2.124.016-3.373-1.455-5.539a12.3,12.3,0,0,1-1.9-3.638c0-.463-1.368-2.675-3.04-4.916-2.585-3.464-3.116-4.848-3.542-9.231a61.217,61.217,0,0,0-6.54-22.171,36.018,36.018,0,0,1-3.483-8.606c-.6-3.725.908-9.269,4.362-15.986l2.3-4.468-1.291-3.886a13.623,13.623,0,0,1-.8-5.839,5.9,5.9,0,0,0-1-4.412,34.1,34.1,0,0,1-2.7-6.714,15.755,15.755,0,0,0-4.684-7.66c-4.9-4.811-5.541-6.705-4.019-11.94,3.1-10.657-.249-16.873-8.425-15.647-3.183.477-3.305.418-3.755-1.831-.345-1.726-1.28-2.741-3.629-3.939-3.052-1.557-4.358-1.563-8.105-.036-.851.347-4.333,1.548-7.737,2.67-5.119,1.687-6.656,1.9-8.884,1.258-2.111-.612-3.889-.454-8.209.731-4.464,1.225-6.082,1.356-8.493.69-5.033-1.39-13.679-9.182-14.908-13.437-.952-3.293-6.871-10.966-8.885-11.519-1.28-.351-1.438-.623-.654-1.129s.651-.766-.58-1.088c-1.955-.511-2.15-2.109-.259-2.126,1.157-.01,1.185-.121.193-.762-.731-.472-.812-.754-.22-.762.614-.008.381-.962-.674-2.749-1.484-2.515-1.515-2.848-.381-4.1,3.462-3.825,4.22-12.061,1.589-17.249-1.256-2.477-.448-5.9,2.232-9.456a69.047,69.047,0,0,0,4.379-7.242c2.448-4.625,7.9-11.054,9.38-11.054,1.634,0,6.906-5.668,6.906-7.425,0-3.966,2.371-7.921,6.237-10.4a20.529,20.529,0,0,0,5.41-5.065c1.837-2.972,2.1-3.069,4.236-1.578A14.121,14.121,0,0,0,150.7,470.5c2.608.437,3.855.123,7.737-1.954,6.681-3.573,10.809-4.465,18.454-3.988,5.042.315,7.311.113,9.755-.864,3.6-1.44,6.71-.588,5.868,1.607a2.4,2.4,0,0,0,.344,2.168c.556.67.552,1.631-.014,3.119-.711,1.87-.553,2.427,1.208,4.266a10.137,10.137,0,0,0,4.434,2.6c6.218,1.244,7.986,2.049,9.27,4.223a5.568,5.568,0,0,0,4.213,2.792,22.423,22.423,0,0,1,5.116,1.7c2.086,1.079,2.356,1.039,4.1-.595,1.17-1.1,1.7-2.262,1.426-3.126a4.456,4.456,0,0,1,.407-2.953c1.2-2.237,4.6-2.017,9.9.64,5.782,2.895,16.746,4.96,20.633,3.887a9.389,9.389,0,0,1,5.3-.02c5.346,1.643,8.084.357,8.814-4.14.242-1.494.656-2.716.92-2.716.5,0,.762-2.246.834-7.157.023-1.6.4-2.9.838-2.9.521,0,.5-.56-.074-1.625-.952-1.778-2.881-1.737-7.5.158-2.19.9-2.8.861-4.762-.3-2.544-1.5-5.155-1.728-5.908-.51-.56.906-4.516.271-6.662-1.069a8.12,8.12,0,0,1-2.982-5.932,4.045,4.045,0,0,0-1.741-2.693c-1.482-1.044-1.568-1.339-.58-1.986a4.347,4.347,0,0,1,2.918-.346c1.233.29,2.366-.2,3.8-1.627a7.222,7.222,0,0,1,4.819-2.187A11.7,11.7,0,0,0,256.5,447.4c2.557-1.685,8.362-1.217,12.865,1.038,6.073,3.04,11.467,2.861,13.638-.452,1.129-1.724,1.136-2.086.064-3.721-.653-1-3.79-3.293-6.971-5.1l-5.784-3.291,1.084-2.1c.6-1.152.888-2.29.65-2.529s-.147-.892.2-1.452a6.435,6.435,0,0,0,.787-2.018c.178-1.172-1.07-.848-7.223,1.873-3.572,1.58-4.1,2.064-3.31,3.018a3.914,3.914,0,0,0,2.59,1.171c1.27.026.969.391-1.316,1.6-2.774,1.464-3.084,1.483-4.888.3-1.542-1.011-1.744-1.481-1.013-2.361s.617-1.211-.529-1.641a5.928,5.928,0,0,1-2.271-1.647c-2.216-2.954-9.247,4.817-11.292,12.48-.96,3.6-.928,3.784.879,5.147l1.875,1.414-3.44.709a15.038,15.038,0,0,1-5.667.1c-2.26-.617-5.124.313-5.124,1.665,0,.4-.527.52-1.17.273a2.55,2.55,0,0,0-2.271.464c-.939.779-.833,1.418.723,4.344,1.686,3.17,1.738,3.6.686,5.711-1.317,2.641-2.542,2.444-4.4-.706-1.3-2.2-1.289-2.247.428-2.49,2.166-.307,2.306-1.686.2-2.022-4.794-.767-7.35-3.293-7.35-7.263,0-3.1-2.872-6.513-6.354-7.557a9.725,9.725,0,0,1-4.372-2.53,10.512,10.512,0,0,0-3.869-2.709,10.424,10.424,0,0,1-3.813-2.629c-.81-1.156-1.342-1.3-2.527-.661a2.725,2.725,0,0,0-1.5,1.91c0,2.009,9.862,11.1,14.682,13.53,5.111,2.58,5.91,3.5,2.358,2.721-3.166-.7-4.028,0-2.945,2.377.761,1.669.636,2.177-.894,3.648l-1.778,1.708.4-2.3c.642-3.659-4.182-8.914-8.182-8.914-1.466,0-7.1-5.465-8.576-8.319-1.577-3.05-3.332-3.639-5.818-1.953-3.745,2.539-6.553,3.4-9.49,2.9-3.9-.659-6.357.7-5.735,3.179.325,1.293.144,1.871-.585,1.871a8.06,8.06,0,0,0-3.3,1.933,9.912,9.912,0,0,1-2.84,1.934c-.957,0-3.658,4.89-3.661,6.626,0,1.661-3.029,4.933-5.948,6.433a13.028,13.028,0,0,1-4.809.868c-2.36,0-3.327.389-3.974,1.6-.848,1.584-.874,1.58-2.856-.4-1.86-1.86-2.931-2.326-6.686-2.907-1.973-.305-2.306-4.77-.83-11.132.631-2.719.94-5.767.688-6.772-.733-2.921,1.562-4.644,5.4-4.054,8.866,1.362,14.051,1.437,15.267.221,1.67-1.67,2.424-7.179,1.4-10.267-.665-2.014-1.579-2.838-4.307-3.88-4.012-1.532-4.1-3.015-.174-3.054a10.488,10.488,0,0,0,4.791-1.386c1.141-.747,2.4-1.156,2.8-.908,1.094.676,5.235-1.711,6.611-3.811a5.979,5.979,0,0,1,2.909-2.278c.935-.238,3.441-2.055,5.569-4.037,3.016-2.81,4.6-3.691,7.186-4,3.2-.383,6.427-3.018,4.914-4.019-.94-.622-1.726-4.369-1.2-5.733a7.233,7.233,0,0,1,2.434-2.475l1.983-1.3-.509,3.184c-.442,2.763-.329,3.154.854,2.956a12.3,12.3,0,0,0,3.115-1.19c1.468-.806,1.827-.767,2.214.241.663,1.728-1.18,3.76-2.453,2.7-.7-.583-1.149-.562-1.542.073-.405.655-.722.62-1.187-.133-.349-.565-.813-.85-1.03-.633s.4,1.393,1.375,2.613c1.64,2.057,1.953,2.155,4.291,1.34a4.867,4.867,0,0,1,4.668.231c1.924,1,2.574.948,6.273-.458,3.241-1.231,4.518-1.389,5.952-.736a3.579,3.579,0,0,0,3.523-.045c3.48-1.8,4.444-3.154,4.012-5.643-.64-3.689.532-4.9,3.622-3.732,2.1.793,2.716.762,3.666-.188,1.006-1.006.919-1.378-.729-3.132-1.586-1.688-1.7-2.108-.73-2.76.627-.423,2.978-.575,5.223-.337,4.109.435,9.231-1.17,8.338-2.614-.781-1.264-5.5-1.63-9.494-.735-3.544.793-4.474.729-7.19-.5-4.219-1.9-4.716-4.128-1.822-8.161,3.724-5.191,4.406-6.845,3.345-8.124-1.571-1.893-3.114-1.276-6.7,2.68a22.686,22.686,0,0,1-5.743,4.751,8.03,8.03,0,0,0-3.469,3.222c-1.052,2.034-1.05,2.461.016,4.088a6.375,6.375,0,0,0,2.758,2.314c2.373.753,1.9,2.167-1.491,4.49a11,11,0,0,0-3.095,4.492,8.782,8.782,0,0,1-4.034,4.831c-2.757,1.591-2.882,1.6-4.405.219a7.867,7.867,0,0,1-2.033-3.537,13.844,13.844,0,0,0-2.582-4.654l-2.117-2.536-2.684,1.636a10.846,10.846,0,0,1-4.232,1.622,6.284,6.284,0,0,1-5.488-5.121,14.961,14.961,0,0,0-.7-3.534c-.693-1.733,2.772-4.983,6.372-5.977s10.943-6.134,12.192-8.544a23.25,23.25,0,0,1,4.183-4.794c1.745-1.565,3.173-3.19,3.173-3.611s1.654-1.356,3.675-2.076,5.416-2.027,7.544-2.9a28.32,28.32,0,0,1,10.058-1.753c7.3-.187,12.079.781,16.02,3.247,1.977,1.237,3.538,1.659,5.031,1.361,2.671-.534,16.911,3.88,17.5,5.426s-3.488,3.021-7,2.515c-1.609-.232-4.938-.852-7.4-1.377-3.31-.708-4.7-.73-5.34-.086s-.322,1.12,1.24,1.831a8.037,8.037,0,0,1,3.229,3.124c1.566,3.029,6.583,5.5,9.172,4.514,2.487-.945,2.47-1.244-.154-2.667-2.427-1.317-1.307-1.6,1.741-.442,2.434.925,5.191-.226,4.549-1.9-.3-.784.545-1.349,2.93-1.961,5.1-1.308,5.478-1.495,5.055-2.53-1.6-3.915-1.624-3.8.706-3.537,1.243.142,2.152.674,2.048,1.2s.546,1.336,1.44,1.814c1.343.719,2.4.463,6.1-1.473,5.415-2.839,9.631-3.764,11.2-2.459.877.728,2.33.733,6.537.023,2.976-.5,5.748-.7,6.161-.448a.929.929,0,0,0,1.258-.356c.61-.987-1.076-3.225-2-2.655-1.114.689-4.774-.545-3.978-1.341s22.334,4.216,23.623,5.5c.869.869,3.619-.29,3.619-1.525,0-.416-1.536-1.5-3.412-2.414-5.819-2.827-6.193-7.355-.72-8.729,3.176-.8,4.55.122,8.943,5.987,5.7,7.615,5.558,7.227,3.695,9.844-1.38,1.938-1.463,2.391-.506,2.759,1.814.7,5.7-1.74,6.243-3.917.64-2.551-.555-4.725-3.41-6.2-2.244-1.161-3.869-3.287-3.869-5.064,0-.606.842-.757,2.515-.451,2.508.458,4.583-.452,10.263-4.5a10.886,10.886,0,0,1,5.709-1.586c4.491-.1,5.945-.856,4.652-2.413-.507-.611-.76-1.272-.564-1.468.988-.988,13.726-2.769,16.66-2.329,2.823.423,3.7.194,6.019-1.577,1.494-1.14,2.717-2.379,2.717-2.754,0-.946-6.761-.861-7.35.092-.811,1.311-1.861.855-1.566-.68.25-1.3-.405-1.507-6.041-1.946-15.389-1.2-16.64-1.479-14.794-3.326,1.623-1.623,5.6-1.592,8.936.071a13.463,13.463,0,0,0,5.026,1.238c1.4,0,2.759.348,3.022.774s1.618.774,3.012.774c3.859,0,11.32,1.667,10.852,2.424-.228.369.494.671,1.6.671a11.668,11.668,0,0,1,4.495,1.332c1.832.986,4.39,1.34,9.827,1.362,5.844.023,7.786.324,9.478,1.465,1.17.789,2.123,1.656,2.117,1.926s-1.792,1.474-3.968,2.674c-5.256,2.9-4.145,4.163,2.213,2.516,4.118-1.067,5.064-1.074,8.473-.061,2.8.831,4.544.937,6.441.393s3.838-.427,7.136.428c3.441.892,5.225.982,7.406.377,4.978-1.382,11.1-.992,14.654.934,1.766.957,5.022,2.729,7.237,3.937,3.925,2.141,4.1,2.165,6.818.944,2.279-1.022,3.55-1.107,6.911-.465,3.341.639,4.557.561,6.438-.412,1.841-.952,2.137-1.42,1.434-2.266-1.359-1.637,3.462-2.245,9.384-1.185,2.713.486,6.151.971,7.64,1.078a23.987,23.987,0,0,1,6.467,1.886c3.153,1.419,5.532,1.74,14.756,1.994,8.753.24,11.539.591,13.65,1.716,2.143,1.142,4.586,1.433,12.711,1.512,7.475.073,10.825.427,13.042,1.38,3.58,1.538,5.011.974,3.063-1.207-1.4-1.569-1.393-1.571,4.012-1.034,9.057.9,19.921,2.882,23.6,4.3a41.129,41.129,0,0,0,8.111,1.914,29.984,29.984,0,0,1,8.255,2.4c3.027,1.534,4.011,1.7,5.955,1.026,2.658-.927,4.383-.259,8.443,3.267l2.522,2.191-1.9.477c-1.908.479-6.974-.775-8.719-2.159a1.6,1.6,0,0,0-1.6-.328c-.366.226-2.176-.108-4.021-.744-4.322-1.489-6.241-.93-4.273,1.245,1.344,1.486,1.315,1.517-1.249,1.338-4.8-.335-3.479,1.082,3.565,3.83,3.83,1.494,7.128,2.875,7.328,3.069.726.7-1.668,1.574-3.41,1.241-1.913-.366-6.626,1.687-6.626,2.886a5.363,5.363,0,0,1-1.655,2.266c-1.521,1.417-1.835,1.449-3.869.4-1.9-.984-2.512-.994-4.341-.073a24.841,24.841,0,0,1-4.445,1.63,10.2,10.2,0,0,0-3.28,1.357c-1.557,1.292,1.189,5.054,5.055,6.926,2.106,1.02,3.631,2.386,4.084,3.659a31.959,31.959,0,0,0,1.874,4.078c1.032,1.834,1.023,2.1-.086,2.521a1.222,1.222,0,0,0-.7,1.822,15.082,15.082,0,0,1,.744,3.282,13.587,13.587,0,0,0,.758,3.218c.4.919.069,1.438-1.151,1.825-1.358.431-2.272-.088-4.5-2.556a45.4,45.4,0,0,0-5.711-5.211,39.335,39.335,0,0,1-6.372-6.72c-3.359-4.468-3.428-4.672-2.313-6.827a11.122,11.122,0,0,0,1.176-4,9.55,9.55,0,0,1,1.091-3.7c1.117-2.019.687-3.63-1.7-6.371-1.569-1.8-4.359-.451-3.656,1.767.648,2.043-1.341,2.7-3.629,1.208a15.9,15.9,0,0,0-5.074-1.7c-3.089-.493-3.318-.4-4.118,1.7a9.247,9.247,0,0,0-.435,4.3c.354,1.776.108,2.14-1.72,2.541a9.837,9.837,0,0,1-5.109-.775,8,8,0,0,0-4.994-.67,48.514,48.514,0,0,1-8.339.637c-5.507.055-6.568.3-8.242,1.867a13.093,13.093,0,0,0-2.821,5.416,22.408,22.408,0,0,1-2.016,5.334c-1.061,1.637-.958,1.8,2.074,3.35,3.291,1.679,6.879,2.121,9.6,1.183,2.1-.724,8.5,4.267,10.5,8.184a10.292,10.292,0,0,0,3.007,3.73c3.16,1.691,3.8,12.789,1.159,20.044-1.83,5.023-3.877,6.666-6.885,5.522a20.035,20.035,0,0,0-2.347-.794,16.112,16.112,0,0,0-1.913,3.174c-1.195,2.292-1.428,3.447-.838,4.157,1.128,1.359.293,3.126-1.961,4.153-1.041.474-1.892,1.2-1.892,1.611s2.421,2.415,5.379,4.451c3.764,2.59,5.775,4.58,6.7,6.626.725,1.608,1.177,3.051,1,3.207s-1.755,1.01-3.515,1.9l-3.2,1.613-1.925-4.42c-2.155-4.946-4-6.936-7.26-7.812-1.64-.441-2.211-1.067-2.211-2.422,0-1.242-.8-2.3-2.508-3.3-2.484-1.455-2.533-1.454-5.177.18s-2.676,1.636-3.489.118a7.149,7.149,0,0,1-.82-2.716,2.678,2.678,0,0,0-1.445-1.958c-1.182-.633-1.929-.25-4.1,2.1a25.169,25.169,0,0,1-4.159,3.729c-1.283.729-1.351,1.038-.467,2.1a20.457,20.457,0,0,0,4.372,3.113c2.918,1.631,3.477,1.724,4.461.74.936-.935,1.7-.97,4.52-.2l3.4.922-1.892,1.265c-3.51,2.346-4.616,3.577-5.117,5.694-.411,1.737-.166,2.26,1.394,2.971,1.041.474,2.624,2.367,3.517,4.205a12.874,12.874,0,0,0,3.965,4.726c2.832,1.673,3.653,3.45,2.018,4.365-1.525.853-.8,2.129,1.215,2.129,2.41,0,2.424,1.437.095,9.734-2.821,10.047-5.367,13.4-12.029,15.837a34.036,34.036,0,0,1-7.092,1.874,9.437,9.437,0,0,0-7.277,3.973l-1.594,2.026-.743-1.955c-.97-2.55-3.193-3.192-6.385-1.841a9.255,9.255,0,0,0-5.631,5.762c-.7,2.283,1.768,6.3,5.848,9.531,3.35,2.653,7.108,9.31,7.99,14.154.768,4.213-.592,6.979-4.241,8.624-1.662.75-3.217,1.979-3.456,2.731-.574,1.808-4.009,4.058-4.639,3.039a3.19,3.19,0,0,1-.023-2.2,4.76,4.76,0,0,0-.027-2.687c-.381-.993-.8-1.083-2.026-.429-1.272.681-1.763.508-2.791-.981-2.525-3.661-9.844-9.545-11.873-9.545-.714,0-.99.86-.868,2.708a27.73,27.73,0,0,1-.674,6.453c-.764,3.356-.686,3.971.754,5.919a14.517,14.517,0,0,1,2.1,4.119c.273,1.086,2.51,3.567,5.069,5.619,4.265,3.421,4.715,4.1,6.51,9.779a68.448,68.448,0,0,1,1.928,6.838c0,1.312-1.616.78-4.989-1.642-3.487-2.5-5.714-6.466-7.571-13.469a9.358,9.358,0,0,0-4.2-6.19c-3.077-2.264-3.17-2.461-2.922-6.207.141-2.128.49-5.144.775-6.7.4-2.194.069-3.766-1.472-6.964a48.27,48.27,0,0,1-2.877-7.753c-1.089-4.451-2.627-5.2-5.346-2.591a9.513,9.513,0,0,1-2.527,1.958c-1.231,0-2.923-2.621-2.517-3.9.737-2.322-3.8-10.418-6.448-11.517a7.593,7.593,0,0,1-3.666-4.029c-1.543-3.421-3.274-4.731-5-3.784a32.148,32.148,0,0,1-5.581,1.535c-4.477.918-6.083,2.274-5.47,4.617.226.863-.558,1.7-2.436,2.592a8.565,8.565,0,0,0-3.646,3.246,4.845,4.845,0,0,1-2.361,2.4,6.7,6.7,0,0,0-2.8,2.631,23.626,23.626,0,0,1-4.782,4.826c-2.611,2.007-3.426,3.129-3.3,4.54.758,8.251-.405,15.154-3.246,19.254-2.771,4-2.966,4.11-5.31,3.042a4.381,4.381,0,0,1-2.414-3.49,56.577,56.577,0,0,0-3.463-9c-9.893-21.249-11.356-25.3-10.513-29.14.569-2.593-.8-6.505-2.117-6.062a1.61,1.61,0,0,0-.983,1.417c-.066,3.532-4.034,4.074-7.133.975l-2.054-2.054,1.767-.654c1.988-.735,1.805-2.718-.217-2.355-.718.129-2.363-.654-3.654-1.741a10.018,10.018,0,0,0-3.01-1.976c-.364,0-.884-.7-1.156-1.556-.713-2.247-4.818-4.2-6.875-3.274-1.851.835-18.646.66-21.457-.223a12.443,12.443,0,0,1-4.162-3.235c-2.307-2.64-2.343-2.651-5.8-1.718-3.279.884-3.755.8-8.172-1.429-3.816-1.927-4.96-2.966-6.138-5.578-1.5-3.333-4.841-5.747-6.871-4.968a4.1,4.1,0,0,0-1.659,2.708c-.392,1.787.008,2.948,1.9,5.528a23.109,23.109,0,0,1,3.2,6.224c.941,3.495,2.8,4.534,4.34,2.428.93-1.271,1.181-1.316,1.81-.319a2.844,2.844,0,0,1,.482,1.931c-.43,1.337,4.035,3.538,6.118,3.016,1.053-.264,3.3-2.057,5-3.985,2.673-3.037,3.606-3.242,3.149-.692-.308,1.716,1.043,3.728,3.278,4.884,3.453,1.785,8.263,5.761,8.263,6.83a6.493,6.493,0,0,1-2.01,2.772,21.092,21.092,0,0,0-3.535,4.851c-2.038,3.976-7.947,9.791-9.948,9.791a10.216,10.216,0,0,0-7.122,4.042,11.348,11.348,0,0,1-3.79,3.1c-7.354,3.671-16.208,7.393-18.7,7.861-2.664.5-2.88.379-4.291-2.4a27.326,27.326,0,0,1-2.061-7.186,11.794,11.794,0,0,0-2.8-6.8,10.6,10.6,0,0,1-2.225-3.287c0-.41-1.4-2.185-3.1-3.943a17.276,17.276,0,0,1-4.36-7.545,23.211,23.211,0,0,0-3.126-6.669c-7.1-8.818-9.2-11.927-10.262-15.174-1.4-4.3-2.589-5-3.137-1.837l-.389,2.244-2.617-3.3c-4.033-5.092-4.541-2.778-.755,3.439,1.792,2.942,4.648,8.134,6.347,11.539a75.35,75.35,0,0,0,4.895,8.584,9.413,9.413,0,0,1,1.806,4.887c0,2.916.87,4.735,4.287,8.967a16.9,16.9,0,0,1,3.017,5.523c.366,1.713,1.859,3.5,5.07,6.078,4.879,3.914,8.041,8,8.826,11.4a5.466,5.466,0,0,0,2.828,3.324c2.158,1.116,2.917,1.085,9.736-.392a59.068,59.068,0,0,0,9.576-2.729l2.18-1.127.517,3.063c.47,2.783-.036,4.123-5.544,14.688-5.922,11.359-6.2,11.734-12.088,16.383a54.3,54.3,0,0,0-7.708,7.119c-.925,1.3-3.884,4.807-6.575,7.8-7.855,8.722-8.923,16.392-3.713,26.673,1.323,2.611,1.84,4.588,1.527,5.838a17.181,17.181,0,0,0,.372,5.834c.732,3.415.65,4.329-.618,6.813-1.829,3.585-3.285,4.873-8.4,7.436-2.234,1.12-4.062,2.366-4.062,2.77s-1.567,2.5-3.482,4.655-3.482,4.271-3.482,4.7a17.036,17.036,0,0,0,1.6,3.906c2.63,5.156.863,8.892-5.442,11.5-2.658,1.1-3.531,3.349-2.873,7.4.345,2.123.125,2.829-1.077,3.473a12.839,12.839,0,0,0-3.336,3.676c-3.172,4.981-12.289,13.795-16.431,15.884-3.456,1.743-4.34,1.9-6.88,1.2-2.239-.618-4.046-.52-7.8.423-6.08,1.527-5.435,1.591-7.789-.764Zm101.91-246.781c2-1.033,2.283-1.6,2.283-4.548,0-2.112-.452-3.742-1.212-4.373a12.916,12.916,0,0,1-2.4-3.3c-1.081-2.09-1.076-2.254.051-1.822,1.488.571,3.56-.116,3.56-1.18a9.294,9.294,0,0,0-1.6-3.011c-1.325-1.861-1.856-2.109-3.095-1.446-1,.536-1.5.541-1.5.015,0-.432-1.381-1.49-3.069-2.351-3.735-1.906-5.064-4.017-3.9-6.194.882-1.648,4.032-2.8,5.377-1.971,1.814,1.121,2.348-.531.852-2.633-3.629-5.1-8.682-4.761-14.948.992-4.044,3.713-4.395,4.7-2.108,5.923A2.812,2.812,0,0,1,300.4,441.2c0,.633,1.376,2.644,3.058,4.469,3.874,4.2,4.585,6.123,4.105,11.1l-.386,4,5.316,2.728c2.924,1.5,5.42,2.745,5.547,2.766a15.521,15.521,0,0,0,2.515-1.142ZM299.238,681.247c-2.185-1.239-2.5-1.893-3.066-6.46-.456-3.65-.266-4.443,1.917-7.991,2.219-3.606,2.379-4.3,1.889-8.218-.707-5.656.5-8.628,3.783-9.349,3.1-.679,9.8-6.6,11.4-10.067l1.227-2.653.853,1.872c2.146,4.709,1.927,6.778-1.806,17.107-2,5.527-4.14,12.138-4.762,14.691-1.99,8.171-3.12,10.142-6.379,11.118-3.47,1.04-3.134,1.043-5.061-.05Zm381.137-13.452c-2.469-2.7-3.946-5.019-3.946-6.19,0-2.6.417-2.37,2.65,1.44a30.841,30.841,0,0,0,4.288,5.561,9.635,9.635,0,0,1,2.347,2.878c0,1.488-1.647.35-5.338-3.689Zm-345.159-1.1a.774.774,0,1,1,.774.774A.776.776,0,0,1,335.216,666.7Zm407.45-1.411a.968.968,0,0,1,.342-1.321c1.15-.711,1.557-.145.79,1.1C743.386,665.726,742.987,665.8,742.666,665.285Zm-402.034-1.251c0-.188.348-.556.774-.819s.774-.109.774.341a.8.8,0,0,1-.774.819C340.98,664.375,340.632,664.222,340.632,664.034Zm381.913-7.853c-.754-1.964.2-2.652,2.336-1.681,1.841.839,1.881.967.6,1.905C723.685,657.718,723.118,657.675,722.545,656.181Zm4.9-3.441c-1.512-.934-.465-1.681,1.941-1.383,1.885.233,1.928.318.582,1.148a2.539,2.539,0,0,1-2.523.235ZM691.323,649.9c-1.589-3.421-1.032-4.736.611-1.442,1.71,3.427,1.74,3.539.936,3.531C692.551,651.986,691.855,651.047,691.323,649.9Zm2.963-.549c-.033-.816.149-1.273.406-1.016a1.556,1.556,0,0,1,.061,1.483c-.247.617-.43.434-.467-.467Zm62.989-7.429c-.708-1.145-.037-1.731,1.616-1.409,1.209.236,1.222.361.129,1.267-.87.721-1.363.761-1.745.142Zm-457.263-3.855c-.263-.426-.109-.774.341-.774a.8.8,0,0,1,.819.774c0,.426-.154.774-.341.774S300.274,638.494,300.011,638.069ZM639.677,630.8c-4.9-1.544-7.117-2.978-9.044-5.842-2.2-3.272-6.23-5.749-8.288-5.1a8.02,8.02,0,0,0-3.111,3.19c-1.5,2.537-1.784,2.677-4.505,2.193a11.511,11.511,0,0,1-4.961-2.432c-1.437-1.339-2.538-1.763-3.66-1.407a4.138,4.138,0,0,1-2.841-.183c-1.063-.6-.959-.874.742-1.989,1.971-1.291,1.974-1.308.651-4.081-1.062-2.227-2.527-3.387-7.317-5.8-3.294-1.656-7.018-3.012-8.276-3.012-2.877,0-4.065-2.652-1.9-4.237,1.289-.943,1.1-1.177-2.263-2.811-3.572-1.735-3.623-1.809-1.917-2.756a8.837,8.837,0,0,1,3.45-1c1.813-.029,4.106,2.586,4.106,4.683a7.652,7.652,0,0,0,1.672,3.4c1.648,2.095,1.69,2.1,2.9.591a21.54,21.54,0,0,1,4.8-3.579l3.567-2.044,4.944,2.23c2.719,1.227,6.579,2.82,8.578,3.54a54.413,54.413,0,0,1,8.884,4.758c5.514,3.622,7.91,6.675,6.536,8.331-1.12,1.349,3.279,7.5,7.833,10.945,5.005,3.791,4.921,4.141-.58,2.407Zm33.672-.062c-.61-.735-.669-1.179-.156-1.179.935,0,2.025,1.468,1.489,2-.195.195-.794-.177-1.333-.825Zm-130-3.149c-1.121-.62-1.445-1.076-.773-1.085,1.382-.019,3.592,1.269,3.071,1.79C545.444,628.493,544.41,628.176,543.347,627.588Zm13.082-1.023c2.194-3.081,5.628-4.4,8.8-3.381,2.313.743,2.349.8.513.878a15.93,15.93,0,0,0-5.636,2.4c-4.594,2.913-5.7,2.944-3.679.1Zm112.263,1.058c-1.046-1.26-.8-1.417,1.1-.691.673.258,1.224.781,1.224,1.161C671.012,629.163,669.759,628.91,668.691,627.623Zm3.624-.683a8.109,8.109,0,0,1-.48-2.669c.033-.855.3-.66.8.577a5.407,5.407,0,0,1,.48,2.669c-.147.44-.5.181-.8-.577Zm59.822.728c0-.188.348-.556.774-.819s.774-.109.774.341a.8.8,0,0,1-.774.819C732.485,628.01,732.137,627.857,732.137,627.669Zm-197.885-3.25c-.535-.225-.775-.728-.535-1.118.591-.956,5.55-.9,6.149.066.263.426.022.778-.535.784a16.161,16.161,0,0,0-2.56.344,5.1,5.1,0,0,1-2.519-.077Zm11.487-.581c-1.406-1.694.214-2.21,3.859-1.228,3.672.989,3.66,1.143-.147,1.83C547.475,624.8,546.388,624.621,545.739,623.839Zm116.169-.471c-.535-.857-.631-1.547-.213-1.547s1.126.7,1.581,1.547.551,1.547.213,1.547S662.439,624.219,661.907,623.368Zm4.845-.778c-2.069-2.286-.961-2.645,1.168-.379,1,1.062,1.459,1.931,1.026,1.931a4.684,4.684,0,0,1-2.193-1.552Zm-145.069-.134a60.894,60.894,0,0,1-8.667-1.891c-2-.656-4.358-.965-5.238-.685-1.771.562-9.307-1.653-9.307-2.736,0-2.473,6.936-2.661,10.622-.288,1.376.886,2.461.945,5.37.293,3.223-.722,3.895-.633,5.788.767a8.568,8.568,0,0,0,2.921,1.584c1.53,0,6.174,2.588,5.782,3.222a1.466,1.466,0,0,1-1.321.539c-.507-.059-3.185-.421-5.951-.8Zm138.884-3.73c-.77-.851-1.052-1.547-.627-1.547a4.684,4.684,0,0,1,2.174,1.547c.77.851,1.052,1.547.627,1.547a4.684,4.684,0,0,1-2.174-1.547Zm-4.879-.98a9.6,9.6,0,0,1-1.3-3.28c-.441-2.053-.392-2.14.433-.769a24.708,24.708,0,0,0,2.034,2.825c.643.745.8,1.467.366,1.732A1.316,1.316,0,0,1,655.688,617.746Zm-16.386-2.46-1.922-1.064,2.98-.559a14.131,14.131,0,0,0,5.6-2.857c1.572-1.38,2.613-1.88,2.606-1.251-.018,1.573-.969,2.786-3.862,4.919-3.021,2.229-2.878,2.207-5.4.812Zm-145.139-3.013c-2.843-1.619-7.97-7.885-9.639-11.779a44.175,44.175,0,0,0-4.585-7.688,54.811,54.811,0,0,1-4.136-6.19,26.93,26.93,0,0,0-4.411-5.416c-3.737-3.589-6.035-7.36-4.469-7.333,2.03.035,7.256,2.941,9.5,5.281,6.184,6.456,7.451,7.6,10.37,9.4,2.817,1.736,4.151,3.542,4.285,5.8a7.839,7.839,0,0,0,1.78,2.708c.954,1.064,2.754,3.065,4,4.446a13.2,13.2,0,0,1,2.766,4.79C500.523,610.4,497.22,614.015,494.162,612.273Zm-155.852-.511a.774.774,0,1,1,.774.774A.776.776,0,0,1,338.311,611.762Zm204.646-.007a3.355,3.355,0,0,1-.008-2.286,4.6,4.6,0,0,0-.711-3.32c-1.078-1.644-1.067-1.989.109-3.669a17.487,17.487,0,0,0,1.872-6.084c.389-2.871,1.159-4.815,2.393-6.049,1.689-1.689,2.113-1.764,5.909-1.044,3.259.618,4.542.542,6.316-.376,2.971-1.536,3.188-1.468,2.2.7-1.254,2.753-3.76,3.632-6.4,2.248-4.718-2.472-10.979,1.2-7.676,4.5,1.214,1.214,1.886,1.324,4.135.679,3.854-1.105,5.374-.9,2.981.4-2.709,1.472-3.224,3.106-1.827,5.806A11.168,11.168,0,0,1,553.4,607.5c0,1.761-.185,1.9-1.549,1.171a8.5,8.5,0,0,1-2.731-3.658c-1.173-2.808-1.194-2.818-2.7-1.316-1.317,1.317-1.406,1.9-.685,4.512.651,2.359.607,3.138-.205,3.654-1.367.866-2,.841-2.585-.1Zm106.155-4.127a11.561,11.561,0,0,0-3.712-3.258c-1.312-.679-2.212-1.408-2-1.621,1.2-1.2,7.917,4.261,7.345,5.978-.176.527-.877.055-1.634-1.1Zm-121.5-2.575a5.643,5.643,0,0,0-3.495-.676c-1.925.611-9.571-.945-10.328-2.1-.6-.92-2.375-6.589-3.323-10.63a4.527,4.527,0,0,1,.609-3.386c.886-1.21,1.344-1.3,2.746-.551,1.48.792,1.794.657,2.606-1.125a9.317,9.317,0,0,1,3.754-3.47,8.622,8.622,0,0,0,3.8-3.773,5.5,5.5,0,0,1,3.6-3.2,11.689,11.689,0,0,0,4.654-3.515c1.11-1.455,2.43-2.645,2.935-2.645s2.031,1.149,3.393,2.554l2.476,2.554-1.984,2.669c-2.254,3.031-2.136,5.639.418,9.226l1.547,2.172-1.927,1.263c-1.06.694-1.926,1.69-1.924,2.212.008,1.772-4.951,11.987-6.194,12.763-.865.54-1.872.438-3.358-.34Zm44.947-.014c-1.6-.418-1.823-1.788-.29-1.788a26.635,26.635,0,0,1,3.639.515c2.181.436,2.344.606,1.064,1.106a5.689,5.689,0,0,1-4.413.167Zm123.216-9.866c0-.188.348-.556.774-.819s.774-.109.774.341a.8.8,0,0,1-.774.819C696.12,595.514,695.771,595.36,695.771,595.173Zm-125.926-2.1c-.619-.619-.655-1.336-.119-2.337a2.7,2.7,0,0,0,.315-2.187c-.7-1.129,1.05-3.869,2.468-3.869,1.138,0,1.133.133-.05,1.439-1.022,1.13-1.136,1.877-.529,3.475,1.228,3.23-.108,5.457-2.086,3.478Zm-388.6-2.544c0-.188.348-.556.774-.819s.774-.109.774.341a.8.8,0,0,1-.774.819C181.593,590.872,181.245,590.718,181.245,590.53Zm536.578-1.98c-.263-.426-.109-.774.341-.774a.8.8,0,0,1,.819.774c0,.426-.153.774-.341.774S718.086,588.976,717.823,588.55Zm-531.935-7.3c0-.188.348-.556.774-.819s.774-.109.774.341a.8.8,0,0,1-.774.819C186.235,581.587,185.887,581.433,185.887,581.246Zm372.169-11.633c-1.476-3.443-1.673-3.6-3.944-3.1s-2.343.437-1.495-1.149c.7-1.312,1.354-1.573,3.018-1.207,1.6.352,2.63,0,4.2-1.461a6.394,6.394,0,0,0,2.1-3.318c.024-1.953,2.9,4.6,3.553,8.1.5,2.659.436,2.8-.773,1.8-1.795-1.487-3.523.056-2.05,1.83.588.708.663,1.193.185,1.193a7.168,7.168,0,0,0-2.022.467c-.9.345-1.624-.482-2.77-3.157ZM416.984,570.98c-.865-1.4-1.357-7.71-.732-9.383.663-1.774.712-1.753,2.684,1.161,2.362,3.491,3.119,5.731,2.339,6.926-.746,1.144-3.814,2.071-4.291,1.3Zm172.787-4a1.7,1.7,0,0,1,.774-1.252c.426-.263.774-.13.774.3a1.7,1.7,0,0,1-.774,1.252C590.119,567.536,589.771,567.4,589.771,566.977Zm121.475-.091c0-.426.153-.774.341-.774s.556.348.819.774.109.774-.341.774A.8.8,0,0,1,711.246,566.886Zm-175.635-4.47a23.088,23.088,0,0,1,3.447-4.449c2.778-3.1,3.454-3.539,3.482-2.258.019.874-1.144,2.876-2.584,4.449C537.513,562.825,535.611,563.813,535.611,562.416Zm16.758-2.065a3.335,3.335,0,0,1,.127-2.479c.545-.974.772-.983,1.536-.063.684.824.654,1.411-.127,2.479C552.945,561.6,552.849,561.6,552.369,560.352Zm-592.511-3.015c.474-.571.633-1.267.353-1.547s.213-.509,1.095-.509c1.223,0,1.508.367,1.2,1.547a2.065,2.065,0,0,1-1.957,1.547c-1.211,0-1.362-.228-.69-1.038Zm597.7-.2a20.593,20.593,0,0,0-.838-2.045c-.172-.319.015-.58.416-.58.772,0,1.859,3.177,1.284,3.752C558.237,558.445,557.849,557.937,557.561,557.132Zm-7.841-2.019a1.691,1.691,0,0,1,1.6-2.811c1.019.228,1.056.549.239,2.063C550.767,555.826,550.427,555.965,549.72,555.113Zm9.148-2.659c-.888-1.129-1.485-2.182-1.328-2.339.629-.629,2.8.757,3.962,2.523C563.281,555.353,561.024,555.2,558.868,552.454Zm-12.72-3a4.151,4.151,0,0,1-1.253-2.143c0-.49.764-.126,1.7.807s1.5,1.9,1.253,2.143S546.837,550.148,546.148,549.459Zm-607.337-.111a2.131,2.131,0,0,1-.516-1.315c0-.485.36-.439.916.116.5.5.736,1.1.516,1.315A.665.665,0,0,1-61.189,549.348Zm-4.384-1.032c0-.426.154-.774.341-.774s.556.348.819.774.109.774-.341.774A.8.8,0,0,1-65.573,548.317Zm36.365-1.547c0-.426.154-.774.341-.774s.556.348.819.774.109.774-.341.774A.8.8,0,0,1-29.208,546.769Zm583.139-.118a5.155,5.155,0,0,0-3.268-.329c-1.5.376-2.531-.227-5.336-3.112-3.962-4.076-4.732-5.795-3.57-7.966a9.8,9.8,0,0,0,.817-3.852c0-4.2,2.813-4.03,4.875.294,1.142,2.4,1.15,2.91.076,5.48-1.156,2.766-1.133,2.89.929,5.042,1.489,1.555,2.607,2.082,3.784,1.787a2.655,2.655,0,0,1,2.653.765C556.284,546.438,555.676,547.636,553.931,546.651Zm-587.781-4.866c0-.188.348-.556.774-.819s.774-.109.774.341a.8.8,0,0,1-.774.819C-33.5,542.127-33.851,541.973-33.851,541.786Zm121.475-2.754a.774.774,0,1,1,.774.774A.776.776,0,0,1,87.624,539.032Zm-123.8-3a1.7,1.7,0,0,1,.774-1.252c.426-.263.774-.13.774.3a1.7,1.7,0,0,1-.774,1.252C-35.824,536.587-36.172,536.454-36.172,536.028Zm-6.571-3.177c-.271-.439.04-.568.728-.3,1.34.514,1.586,1.069.473,1.069A1.646,1.646,0,0,1-42.743,532.851Zm123.017-.009c-.263-.426-.109-.774.341-.774a.8.8,0,0,1,.819.774c0,.426-.154.774-.341.774S80.537,533.268,80.274,532.842Zm-119.927-1.547c-.263-.426-.109-.774.341-.774a.8.8,0,0,1,.819.774c0,.426-.154.774-.341.774S-39.391,531.72-39.654,531.295Zm3.482,0c0-.426.154-.774.341-.774s.556.348.819.774.109.774-.341.774A.8.8,0,0,1-36.172,531.295Zm-53.194-2.06a1.468,1.468,0,0,1-.967-1.1c0-1.116,3.415-.828,5.075.427,1.427,1.079,1.386,1.134-.819,1.1A12.414,12.414,0,0,1-89.365,529.235Zm19.579-.439a5.8,5.8,0,0,0-3.407-.235,8.1,8.1,0,0,1-4.032-.284c-1.669-.668-1.521-.746,1.277-.681,4.114.1,5.212-.574,4.16-2.538-.746-1.394-.522-1.5,3.169-1.5,3.571,0,8.722,1.638,9.595,3.05C-58.444,527.547-68.4,529.571-69.787,528.8Zm14.841.489c-.917-.917.223-1.859,2.249-1.859,1.217,0,1.833.365,1.635.967C-51.419,529.476-54.131,530.1-54.945,529.285Zm559.771-1.23c-2.049-2.049-.021-4.5,3.725-4.5,1.66,0,1.662.014.237,2.453C507.127,528.853,506.136,529.365,504.826,528.055ZM-48.551,527.9c0-.167.522-.5,1.161-.749s1.161-.108,1.161.3-.522.749-1.161.749S-48.551,528.063-48.551,527.9ZM-82,522.35a9.962,9.962,0,0,0-3.63-.478c-2.425-.034-3.006-.272-2.411-.989.575-.693-.251-1.615-3.1-3.458-5.577-3.614-8.691-4.32-12.438-2.821-3.513,1.406-3.783,1.446-3.783.56,0-1.619,6.158-3.4,10.592-3.063,4.241.322,6.615,1.225,14.941,5.679,6.844,3.661,6.851,3.668,4.642,4.3C-79.688,522.793-81.455,522.893-82,522.35Zm5.592-6.529c1.5-.969,2.321-.969,2.321,0,0,.426-.783.768-1.741.762C-77.233,516.573-77.344,516.427-76.405,515.82Zm616.194-1.372A7.763,7.763,0,0,1,538,512.106c-.778-1.476-.7-2.193.472-4.193,1.8-3.09,3.023-3.476,3.609-1.142.616,2.455-1.165,8.422-2.292,7.677Zm-611.114-1.031c.517-.836,3.431-.93,3.43-.111,0,.319-.868.63-1.929.692s-1.736-.2-1.5-.58Zm-15.3-7.457c-1.237-1.42-1.057-3.293.316-3.293.44,0,.622.68.4,1.51s0,1.653.49,1.828.68.542.429.816S-85.974,506.707-86.626,505.96Zm4.495-6.078c-.275-.718-.327-1.479-.114-1.692s.612.2.888.918.327,1.479.114,1.692S-81.856,500.6-82.131,499.882Zm-4.849-.7a1.35,1.35,0,0,1,1.474-1.161c1.31,0,1.345.129.313,1.161a5.042,5.042,0,0,1-1.474,1.161C-86.839,500.346-86.98,499.823-86.98,499.185Zm648.9-16.963a7.98,7.98,0,0,0-1.878-3.333c-2.452-2.914-1.584-4.859,1.32-2.957,2.088,1.368,3.179,4.163,2.409,6.169C563.184,483.624,561.917,483.706,561.917,482.223Zm-600.41-4.656c0-.188.348-.556.774-.819s.774-.109.774.341a.8.8,0,0,1-.774.819C-38.145,477.908-38.493,477.754-38.493,477.567Zm604.722-.951c-.5-1.307.683-2.543,2.458-2.565,1.229-.015,1.252,1.715.039,2.928-1.262,1.262-1.909,1.167-2.5-.364Zm7.069-2.824c-1.5-2.293-3.624-2.607-8.482-1.258-1.975.549-3.336.555-4.255.019-.743-.433-.943-.8-.444-.811a9.167,9.167,0,0,0,3.239-1.985c1.654-1.392,2.866-1.827,4.173-1.5,1.385.348,2.88-.317,6.024-2.68,6.121-4.6,6.675-6.05,4.184-10.964-2.39-4.717-1.724-6.235,1.818-4.143,2.578,1.523,5.007,5.884,4.3,7.723-.254.662.125,2.739.842,4.616,1.014,2.656,1.11,3.773.434,5.037-.994,1.857-3.759,3.1-6.9,3.1-1.762,0-2.289.452-2.865,2.46l-.706,2.46-1.358-2.073ZM259.855,471.15c-.923-.923-.432-1.754,1.038-1.754a2.579,2.579,0,0,0,1.98-.774c.719-1.164,1.946-.93,1.481.282-.477,1.244-3.827,2.916-4.5,2.245Zm-26.384-1.339-2.321-1.063,3.095-.052c3.855-.065,6.694.658,6.135,1.562-.622,1.007-4.245.773-6.909-.447Zm-31.256-7.718c-3.1-1.585-3.242-1.783-1.626-2.206,1.936-.506,6.221.124,6.134.9a10.112,10.112,0,0,1-.58,1.765C205.668,463.712,205.291,463.668,202.215,462.093Zm-15.508-8.371c-.67-1.921-.617-2.656.253-3.526,1.573-1.573,2.8-.467,2.8,2.528,0,3.539-1.941,4.174-3.049,1Zm-18.143.643c.549-1.43,2.9-1.672,2.429-.25a2.247,2.247,0,0,1-1.609,1.217c-.9.174-1.146-.119-.82-.967Zm404.273-8.831c-1.416-1.989-1.455-2.356-.409-3.849,1.027-1.467,1.023-1.906-.035-3.953-1.741-3.366-1.5-3.57,1.522-1.267a24.333,24.333,0,0,0,6.543,3.207q6.53,1.939,3.134,3.028c-.857.272-1.559,1-1.559,1.618,0,.841-.534.987-2.128.579-4.082-1.045-5.243-.789-4.981,1.1.321,2.309-.2,2.2-2.089-.458Zm-384.886.909a1.737,1.737,0,0,1,.645-2.859c.838-.322,1.161.085,1.161,1.465C189.756,446.906,189,447.491,187.95,446.443ZM567.927,430.13a40.8,40.8,0,0,1-3.516-6,60.075,60.075,0,0,0-7.5-10.423c-3.184-3.551-4.8-5.906-4.2-6.107.542-.181,1.7.628,2.582,1.8a40.479,40.479,0,0,0,8.886,8.344c3.428,2.527,5.124,4.865,2.912,4.016-2.551-.979-1.914,1.345,1.387,5.062a35.325,35.325,0,0,1,3.5,4.3C571.976,432.064,568.985,431.331,567.927,430.13ZM1.741,428.776c0-.638.337-1.161.749-1.161s.549.522.3,1.161-.582,1.161-.749,1.161S1.741,429.415,1.741,428.776Zm-4.043-2.5-2.882-.3,5.424-5.371c2.983-2.954,5.814-5.37,6.291-5.37.5,0,.352.568-.359,1.354-1.611,1.78-.512,3.779,2.431,4.426a4.647,4.647,0,0,1,3.061,2.353c.794,1.744.66,1.921-2.021,2.666-2.812.781-6.169.85-11.944.244Zm-188.533-5.551c-2.68-2.5-2.979-3.558-1.2-4.24,1.592-.611,4.53,1.38,5.643,3.824,1.168,2.565,1.148,2.661-.573,2.661C-187.772,422.973-189.513,421.963-190.835,420.729ZM149.909,416.8c.851-.42,2.526-1.116,3.722-1.548,2.635-.951,2.2-1.963-1.134-2.63-2.286-.457-2.367-.574-1.059-1.53.779-.569,1.189-1.4.912-1.851s.512-1.17,1.816-1.625c1.276-.445,2.32-1.152,2.32-1.572,0-1.787-1.613-4.793-2.509-4.677-2.065.269-3.022-.095-2.689-1.024a3.5,3.5,0,0,0-.35-2.321c-1-1.936,1.293-5.941,3.42-5.984.319-.006.493.415.387.937s.624,1.073,1.623,1.224l1.816.275-1.735,1.847-1.735,1.847,1.956.744c2.1.8,4.123,3.4,6.184,7.947.987,2.179,1.636,2.749,2.789,2.447,2.364-.618,2.645.984.427,2.437-1.5.985-1.788,1.54-1.13,2.2s-.639,1.1-5.14,1.749c-3.311.478-7.239,1.095-8.729,1.37C149,417.443,148.725,417.381,149.909,416.8Zm-13.048-4.274a5.405,5.405,0,0,1,.671-3.482c.727-1.406.868-2.4.381-2.7-1.341-.829-.838-1.886,1.132-2.381a6.2,6.2,0,0,0,2.8-1.562c1.031-1.242,5.8-1.471,6.513-.312.263.425-.065,1.547-.728,2.493a7.751,7.751,0,0,0-1.205,3.778c0,1.725-.53,2.241-3.288,3.2-1.809.628-3.853,1.385-4.543,1.684A1.166,1.166,0,0,1,136.861,412.523Zm14.209-7.687c0-.188.348-.556.774-.819s.774-.109.774.341a.8.8,0,0,1-.774.819C151.418,405.178,151.07,405.024,151.07,404.836Zm-343.379-3.728c-.758-.913-.71-1.339.241-2.128,1.572-1.3,2.352-.42,1.437,1.631-.631,1.414-.861,1.482-1.679.5Zm-1.21-5.819c-.261-.423.043-1.2.677-1.725,1.258-1.044,1.521-.225.463,1.444C-192.783,395.646-193.231,395.756-193.519,395.29Zm-50.01-.493c0-.544,2.346-1.5,5.674-2.3,1.262-.306,2.008-.232,1.757.174a5.007,5.007,0,0,1-2.579,1.137,26.738,26.738,0,0,0-3.5.956C-242.921,395.049-243.53,395.065-243.53,394.8Zm459.786-8.7c-1.427-.576-1.175-1.464.451-1.586.78-.059,1.419.389,1.419,1,0,1.152-.268,1.237-1.87.59ZM46.23,382.141c-4.9-2.67-7.237-6.772-5.818-10.2.671-1.621.692-2.64.076-3.791-1.281-2.394.39-5.2,4.665-7.83a16,16,0,0,0,4.505-3.791c1.239-2.316.136-6.284-2.021-7.267-1.092-.5-1.686-1.284-1.444-1.912.549-1.431-2.027-6.32-4.592-8.715-1.888-1.763-2.7-1.938-9.167-1.981-8.8-.058-10.445-.547-10.3-3.074.061-1.049.293-1.908.517-1.909s3.358-.363,6.964-.807a48.978,48.978,0,0,0,13.864-3.923c7.946-3.388,8.551-3.455,27.51-3.009a93.265,93.265,0,0,0,18.569-1.494c6.589-1.11,11.437-1.528,14.055-1.213a22.768,22.768,0,0,0,7.263-.4c4.22-1.136,15.183.231,19.495,2.43,2.549,1.3,3.9,1.472,8.2,1.044,4.646-.463,5-.4,3.6.624a16.548,16.548,0,0,1-5.8,1.7c-5.079.669-9.746,4.289-8.509,6.6.534,1,.151,1.848-1.574,3.5a12.277,12.277,0,0,0-2.687,3.468c-.539,1.7-7.379,4.856-10.771,4.974-3.767.131-4.161.932-1.248,2.536a44.026,44.026,0,0,1,4.464,2.87l1.962,1.492-1.774.656c-1.36.5-2.463.179-4.725-1.389-3.07-2.128-6.374-2.139-4.612-.015.687.828.522,1.15-.764,1.486-2.875.752-.841,2.239,2.33,1.7,2.018-.341,3.153-.161,3.784.6.751.9-.229,1.324-5.864,2.508A73.514,73.514,0,0,1,95.361,359.1c-4.348.065-7.481,1.313-12.091,4.816-1.5,1.142-4.7,2.275-8.435,2.99-7.812,1.495-10.452,3.223-15.159,9.926-3.781,5.384-6.06,7.39-8.418,7.409a18.6,18.6,0,0,1-5.029-2.1Zm-54.861-5.175a16.54,16.54,0,0,1-4.525-4.231c-1.615-2.55-3.1-2.874-7.463-1.624a6.191,6.191,0,0,1-3.794.093c-2.291-1.282,1.847-2.543,6.456-1.967,3.505.438,4.284.313,4.693-.752.821-2.14,4.58-3.674,6.67-2.722a4.844,4.844,0,0,0,4.1-.057c2.211-.844,2.241-.92.8-1.98a5.887,5.887,0,0,0-2.1-1.1c-.326,0-1.5-1.554-2.617-3.454a17.186,17.186,0,0,0-4.637-5.069c-2.442-1.509-2.765-1.536-4.95-.406-1.91.988-3.013,1.057-6.034.378a19.258,19.258,0,0,0-6.31-.342c-2.493.466-7.059-.754-7.059-1.885,0-2.079,6.553-6.745,10.445-7.438l3.095-.551-2.212,2.357c-3.052,3.251-1.9,4.748,1.41,1.838a13.672,13.672,0,0,1,5.4-2.777c2.389-.448,3.413-.156,6.413,1.831,3.992,2.644,4.3,2.715,6.55,1.51,1.356-.725,1.858-.526,3.33,1.32a12.576,12.576,0,0,0,5.51,3.369c3.534,1.118,3.776,1.361,3.776,3.8a4.241,4.241,0,0,0,1.768,3.869c5.192,3.713,5.079,3.56,3.956,5.359-1.541,2.467-2.757,2.646-6.166.906-2.372-1.21-3.408-1.376-4.6-.737-1.461.782-1.477.949-.3,3.223.965,1.867,1.053,2.809.4,4.249-.808,1.774-.937,1.8-3.132.667-4.315-2.231-7.22-.763-3.2,1.615,1.261.745,2.117,1.639,1.9,1.986-.749,1.213-4.578.569-7.576-1.273Zm158.927,1c0-.355.522-.645,1.161-.645s1.161.29,1.161.645-.522.645-1.161.645S150.3,378.323,150.3,377.968Zm-188.1-4.161c-1.525-.8-2.71-.871-4.846-.281-3.632,1-4.9.269-3.059-1.767,2.359-2.607,3.959-3.12,6.805-2.181,3.2,1.057,4.624,2.628,3.76,4.156C-35.694,374.709-36.07,374.719-37.8,373.807Zm153.669-.352c-1.277-.839-2.9-1.343-3.611-1.118-.977.309-1.194.041-.894-1.106.46-1.76,7.258-4.3,9.557-3.572a10.3,10.3,0,0,0,4.551-.465c2.671-.8,3.38-.74,5.186.443l2.092,1.37-1.863,1.452c-1.573,1.225-4.489,2.289-11.535,4.205C118.709,374.839,117.142,374.294,115.865,373.455ZM-94.2,359.011a31.366,31.366,0,0,1-5.759-2.022l-3.825-1.717,5.372-.387c2.955-.213,5.372-.735,5.372-1.161s-2.089-.96-4.642-1.188c-3.371-.3-4.007-.513-2.321-.774,2.822-.437,3.026-1.659.387-2.325-1.9-.48-1.886-.509.787-1.661a20.555,20.555,0,0,1,13.938-1.08c3.589,1.066,4.15,1.061,5.842-.047,1.2-.784,1.907-.915,1.968-.364.053.474.14,1.269.193,1.765.18,1.676,1.723,1.459,3.565-.5,1.7-1.815,4.66-2.684,4.653-1.369a12.969,12.969,0,0,1-1.53,3.084l-1.527,2.5,2.5,1.3,2.5,1.3-4.1,1.871c-3.7,1.688-4.458,1.785-7.774.99-3.215-.771-4.138-.683-7.377.706-3.659,1.568-4.431,1.669-8.217,1.071Zm31.031-.545c-.7-.842-.41-1.257,1.4-2a6.974,6.974,0,0,1,4.027-.388c1.676.532,1.637.616-.91,1.972-3.25,1.731-3.412,1.746-4.512.42ZM150.3,354.886c1.5-.969,2.321-.969,2.321,0,0,.426-.783.768-1.741.762C149.468,355.638,149.357,355.492,150.3,354.886Zm141.978-2.147c-3.956-1.562-3.875-1.477-2.724-2.864.538-.649.675-1.19.3-1.2s.021-.551.872-1.194,1.553-1.415,1.56-1.716c.027-1.144,3.177-4.162,5.4-5.177a28.6,28.6,0,0,1,7.35-1.457c2.766-.22,6.471-.622,8.233-.894,1.876-.29,3.4-.171,3.686.286.549.888-.5,1.265-6.5,2.344-5.959,1.071-9.541,2.739-11.9,5.543-2.485,2.954-2.568,4.818-.286,6.411l1.741,1.214L297.69,354a19.068,19.068,0,0,1-5.416-1.257ZM-112.96,350.5c-1.248-1.248-.963-1.519,5.023-4.8,7.014-3.84,10.539-4.35,16.831-2.434l3.482,1.06-4.642.921a123.626,123.626,0,0,0-18.2,6.085A2.651,2.651,0,0,1-112.96,350.5Zm55.9-1c0-.412-.957-1.3-2.128-1.97l-2.128-1.221,2.849.448c2.024.318,3.032.129,3.482-.655.535-.932,5.459-2.8,7.423-2.812.33,0,.061,1.039-.6,2.314-1.553,3-8.9,6.219-8.9,3.9Zm12.046-2.259c-1.109-1.794,6.462-4.57,9.678-3.549,2.344.744.777,2.022-3.311,2.7a28.267,28.267,0,0,0-4.6,1.1,1.472,1.472,0,0,1-1.766-.249Zm24.706-5.7c-5.107-.406-9.38-.827-9.5-.935-.692-.642,1.034-2.732,2.891-3.5,1.826-.756,2.667-.656,5.167.616,2.436,1.24,4.007,1.446,8.533,1.12a34.539,34.539,0,0,1,7.737.155l2.19.554L-6,340.994a10.666,10.666,0,0,1-3.869,1.365c-.638-.045-5.339-.415-10.445-.821Zm222.661-3.162c-3.8-1.946-4.168-2.828-1.182-2.845a6.787,6.787,0,0,0,3.288-.847c1-.722.99-.781-.1-.435a2.351,2.351,0,0,1-2.16-.5c-.684-.684-1.041-.672-1.488.051-.414.669-1.263.749-2.869.268-4.08-1.222-4.99-1.764-4.99-2.976,0-1.026,1.023-1.12,7.35-.675,4.819.339,7.35.245,7.35-.273,0-1.523,2.147-.771,2.716.952l.575,1.741.342-1.741c.188-.957.841-1.741,1.449-1.741a1.033,1.033,0,0,0,1.107-.928c0-.722.206-.722.928,0,.54.54,3.129.928,6.19.928,5.532,0,6.831.989,3.142,2.392-1.917.729-5.252.523-8.906-.551-.745-.219-1.352-.113-1.349.235.005.714,4.353,3.34,5.529,3.34a3.6,3.6,0,0,1,1.852,1.085c.931.931.924,1.148-.055,1.523-.627.241-1.141.062-1.141-.4,0-.54-.984-.651-2.784-.313-1.949.366-2.625.265-2.255-.335a1.922,1.922,0,0,0-.405-1.984c-.992-1.2-3.841-1.561-3.841-.493a13.173,13.173,0,0,1-2.515,3.413l-2.515,2.78-3.267-1.672ZM-2.9,336.673c-1.341-.787-3.239-1.015-6.19-.744-2.758.254-4.879.035-6.027-.622-1.583-.905-1.2-1.009,3.636-.969,6.043.049,8.7-1.245,5.424-2.644-1.555-.665-1.328-.725,1.337-.356,3.479.482,4.831-.45,2.936-2.023-2.021-1.677.2-2.2,7.393-1.732q6.675.432,8.39-.485c2.19-1.172,1.331-2.664-1.172-2.036-1.73.434-13.736-.278-13.229-.785.362-.362,17.372-1.937,28.54-2.643,5.793-.366,12.234-.877,14.314-1.135l3.781-.469-6.241,3c-5.852,2.811-15.368,5.551-19.277,5.551-.952,0-3.688,1.045-6.08,2.321a23.254,23.254,0,0,1-5.416,2.321,25.594,25.594,0,0,0-5.624,2.311c-2.507,1.271-4.558,2.3-4.558,2.294s-.87-.529-1.934-1.153ZM-17.989,329.6c-3.75-.83-3.887-1.142-1.132-2.57,4.017-2.082,7.818-2.615,9.546-1.34,1.368,1.01,1.289,1.166-1.4,2.751C-13.774,330.1-14.911,330.286-17.989,329.6Z" fill="#202020"/>
    </g>
  </g>
</svg>
