<svg xmlns="http://www.w3.org/2000/svg" width="960.183" height="510.746" viewBox="0 0 960.183 510.746">
  <g id="map" transform="translate(264.181 -320.03)">
    <path id="path2830" d="M-38.608,830.031c-3.685-1.617-4.716-3.2-3.841-5.9.406-1.25,1.185-2.273,1.731-2.273s2.939,1.474,5.317,3.275a43.877,43.877,0,0,0,6.461,4.185l2.138.91-2.63.067a40.485,40.485,0,0,0-4.716.422,9.356,9.356,0,0,1-4.46-.687Zm-8.365-8.3a3.247,3.247,0,0,0-2.571-.341c-.907.337-1.607-.165-2.278-1.635a5.7,5.7,0,0,0-2.122-2.587c-1.456-.587-4.507-6.382-6.205-11.785-.858-2.729-2.011-4.615-3.381-5.528-2.43-1.62-2.6-2.355-.723-3.055,2.152-.8,2.552-5.247.741-8.229-.864-1.423-1.319-3.094-1.059-3.89.307-.939-.541-2.586-2.595-5.039-2.592-3.1-3.072-4.222-3.188-7.485a12.891,12.891,0,0,0-.975-5.025c-.581-.82-.7-3.766-.386-9.588a62.042,62.042,0,0,0-.795-15.633c-1.391-8.061-2.1-23.081-1.74-36.784a42.715,42.715,0,0,0-.718-8.919c-1.15-4.827-6.44-10.92-12.979-14.948-4.677-2.881-5.334-3.619-7.162-8.044a61.964,61.964,0,0,0-4.7-8.9,31.42,31.42,0,0,1-3.573-7.229c-1.544-5.589-4.265-11.2-6.12-12.629a8.954,8.954,0,0,1-2.5-4.381c-.629-2.672-.463-3.418,1.507-6.775,2.136-3.64,2.161-3.788.718-4.231-3.547-1.087-2.055-6.646,4.312-16.064,4.232-6.26,5.472-11.029,4.3-16.539-.447-2.1-.847-4.3-.889-4.88s-.36-1.063-.707-1.063-.28-.767.148-1.7c.66-1.445.493-1.857-1.092-2.7-2.31-1.234-5.8-.014-5.811,2.032-.016,2.454-.937,2.635-3.972.78a14.184,14.184,0,0,0-3.752-1.806c-.438,0-2.142-1.359-3.787-3.019s-3.4-3.4-3.9-3.861a4.428,4.428,0,0,1-.907-2.8,5.885,5.885,0,0,0-1.424-3.471,12.882,12.882,0,0,1-2.255-4.463c-.6-2.134-1.051-2.695-1.623-2.023-1.2,1.4-2.965,1.135-7.26-1.092a15.54,15.54,0,0,1-5.519-4.691,13.882,13.882,0,0,0-3.787-3.983c-1.965-1.191-2.457-1.182-5.32.1l-3.154,1.412-9.677-5.5c-5.953-3.382-10.573-6.607-12-8.381-2.219-2.751-2.291-3.049-1.552-6.459.676-3.124.561-4.09-.91-7.652a39.058,39.058,0,0,0-4.5-7.654c-1.547-1.967-2.637-3.91-2.422-4.317s-.875-3.152-2.421-6.1a30.1,30.1,0,0,1-3.3-9.561c-.395-3.365-.855-4.395-2.311-5.173-1.544-.825-1.975-.719-2.859.7-1.245,1.994-.891,4.1,1.862,11.072a47.8,47.8,0,0,1,2.569,9.335,32.83,32.83,0,0,0,1.932,7.392c1.819,4.181.645,4.107-2.225-.14-1.692-2.5-2.149-3.878-1.813-5.449.359-1.677.006-2.485-1.753-4.01-2.668-2.312-3.232-3.8-2.252-5.95.571-1.252.309-2.624-1.142-5.981-1.474-3.409-1.782-5.061-1.417-7.592.6-4.138-.987-7.884-3.94-9.318-1.7-.828-2.292-1.754-2.64-4.16-.246-1.7-.716-4.336-1.046-5.852-.343-1.578-.318-2.961.058-3.234s.125-1.429-.526-2.593a4.052,4.052,0,0,1-.345-4.272,4.946,4.946,0,0,0,.386-3.011c-.248-.471.37-1.877,1.374-3.126a22.429,22.429,0,0,0,2.97-5.533,33.778,33.778,0,0,1,4.312-7.393,40.661,40.661,0,0,0,4.908-8.842c1.329-3.6,2.108-4.715,3.292-4.727.853-.008,1.506.464,1.451,1.049-.231,2.437,1.413,1.686,3.259-1.488,1.088-1.871,1.675-3.53,1.3-3.685a1.8,1.8,0,0,1-.674-1.564c0-.7-1.5-2.992-3.338-5.083-3.045-3.469-3.24-3.929-2.228-5.24a2.466,2.466,0,0,0,.37-2.988c-.961-2.014.556-6.523,2.2-6.541.679-.008.873-.279.456-.638-.936-.806-1.36-2.636-1.228-5.3.21-4.259-.585-6.04-3.286-7.363a26.315,26.315,0,0,1-4.94-3.346,7.927,7.927,0,0,0-3.553-2.049,48.668,48.668,0,0,1-7.009-1.72c-5.082-1.521-5.978-1.581-7.739-.519-3.649,2.2-7.514,3.1-9.09,2.11-1.182-.742-2.472-.284-6.97,2.475a42.6,42.6,0,0,1-8.059,4.027,28.464,28.464,0,0,0-5.939,2.65c-5.3,3.133-12.9,6.292-15.005,6.237-1.357-.035-.439-.733,3.17-2.411,6.134-2.851,12.437-6.565,13.02-7.671.718-1.362-.841-1.851-2.713-.851-1.378.736-2.228.667-3.819-.31l-2.046-1.257,2.225-1.349c2.516-1.525,3.307-3.25,2.729-5.95-.56-2.615,2.527-4.536,9.176-5.711a18.054,18.054,0,0,0,8.117-3.142c3.224-2.573,2.671-4.518-.806-2.83-1.646.8-2.845.808-5.282.039-2.962-.935-3.068-1.068-1.743-2.2a13.528,13.528,0,0,1,9.814-2.447,6.642,6.642,0,0,0,5.07-.858l2.316-1.4-1.524-1.9a8.451,8.451,0,0,1-1.524-2.4c0-.789,4.368-2.367,6.551-2.367a24.233,24.233,0,0,0,6.64-2.056,68.175,68.175,0,0,1,13.136-3.43c7.563-1.226,9.164-1.241,14.835-.139,3.5.68,8.316,1.49,10.71,1.8a64.831,64.831,0,0,1,9.417,2.194c6.469,2.08,10.682,2.055,17.908-.108,3.191-.955,6.416-1.508,7.167-1.229a3.7,3.7,0,0,0,2.837-.415c1.115-.7,1.98-.615,3.572.35A8.279,8.279,0,0,0-129,359.5c2.549-.35,4.782.012,8.041,1.3a26.159,26.159,0,0,0,6.124,1.788c1.571,0,1.576.031.2,1.215-1.345,1.161-1.349,1.242-.086,1.816.727.33,3.252.364,5.61.075,4.259-.522,4.3-.507,5.484,2.185l1.2,2.711,1.552-2.282a11.149,11.149,0,0,1,4.983-3.492c2.98-1.051,3.884-1.048,6.877.027a13.911,13.911,0,0,0,6.535.714c2.412-.408,3.531-.154,5.1,1.159,1.986,1.658,2.041,1.659,3.8.058a14.773,14.773,0,0,1,4.5-2.509c3.566-1.165,4.776-3.647,2.634-5.4-1.514-1.243-1.448-1.338,2.533-3.627,2.969-1.707,4.306-2.095,4.885-1.416s.573,1.425-.021,2.726c-1.013,2.219.248,5.572,1.828,4.862a2.918,2.918,0,0,1,2.094.013c.917.412.9.762-.108,2.568-2.789,4.991,3.464,3.577,7.7-1.741a5.6,5.6,0,0,1,6.888-1.693c1.614.726,1.463,1.321-1.21,4.757-3.186,4.1-4.816,4.933-9.6,4.933a14.343,14.343,0,0,0-6.315,1.359c-1.761,1.068-2.62,1.156-4.009.414-2.589-1.383-3.491-.232-1.633,2.086l1.586,1.978-3.163,1.052a27.89,27.89,0,0,1-6.428,1.177c-2.6.1-3.266.431-3.27,1.637,0,1.033-1.27,2.119-3.99,3.423-8.813,4.223-16.29,11.838-13.583,13.834a8.2,8.2,0,0,1,1.789,3A4.233,4.233,0,0,0-87.588,403a34.094,34.094,0,0,1,6.373,2.987,36.461,36.461,0,0,0,6.53,3.069c3.3.842,3.325.931,1.79,5.5-1.313,3.905-1.34,4.463-.322,6.77.61,1.383,1.509,2.5,2,2.484,2.377-.081,4.606-2.653,5.991-6.913,1.32-4.061,1.922-4.818,5.711-7.19,5.592-3.5,7.917-6.95,7.3-10.822-.4-2.522-.194-3.114,1.648-4.651a14.839,14.839,0,0,0,3.415-5.152c1.6-4.169,4.181-5.614,8.526-4.781,3.854.739,8.411,3.607,8.961,5.64a5.834,5.834,0,0,1-.417,3.331c-.69,1.511-.559,2.148.78,3.82l1.608,2.007,2.626-1.6a44.587,44.587,0,0,0,5.144-3.8l2.518-2.209.592,1.875a6.148,6.148,0,0,1,.205,3.055,4.692,4.692,0,0,0,.367,2.831,3.684,3.684,0,0,1,.1,3.03c-.459.962-.152,2.424,1.015,4.834,1.673,3.452,1.673,3.455.2,4.661-1.933,1.587-.693,3.27,1.429,1.939a4.658,4.658,0,0,1,6.007.428q3.3,3.5-5.466,8.343c-6.348,3.5-9.178,4.195-17.464,4.281-6.119.063-6.929.292-12.878,3.635-3.491,1.962-6.348,3.9-6.348,4.316,0,1.755,1.1,1.6,5.321-.739,2.487-1.379,5.693-2.481,7.219-2.481,2.608,0,2.7.094,1.889,1.878a12.359,12.359,0,0,1-2.261,3.21c-1.213,1.152-1.284,1.638-.525,3.592,1.139,2.931,4.114,4.341,7.672,3.637l2.812-.556L-29.69,445a13.836,13.836,0,0,1-4.353,2.3,27.145,27.145,0,0,0-5.5,2.511c-1.849,1.092-3.707,1.67-4.206,1.309-1.148-.832.064-2.08,3.794-3.907,3.318-1.625,2.787-3.351-.788-2.565a67.669,67.669,0,0,0-10.036,4.431c-6.441,3.326-7.565,4.2-7.94,6.206-.461,2.46-2.034,3.624-7.563,5.6a13.839,13.839,0,0,0-5.079,3.378,30.617,30.617,0,0,1-4.38,4.089,8.21,8.21,0,0,0-2.935,3.971c-.387,1.919-.477,1.964-.961.486-.908-2.769-2.276-.062-2.354,4.66-.081,4.838-2.173,8.138-6.761,10.665-4.7,2.591-11.4,8.714-12.754,11.666-1.2,2.606-1.248,3.622-.51,10.321.688,6.25.647,7.818-.259,9.871-.676,1.533-1.465,2.266-2.122,1.971-1.557-.7-3.461-8.21-2.927-11.544.371-2.316.125-3.194-1.347-4.815-1.187-1.307-2.282-1.8-3.213-1.457-.777.289-2.975-.259-4.886-1.22-2.928-1.471-3.862-1.595-5.953-.786a6.168,6.168,0,0,0-3.286,3.035c-.686,1.765-1.14,1.992-3.035,1.514a18.711,18.711,0,0,1-4.187-1.735c-2.654-1.589-4.14-1.479-7.121.531-1.39.937-4.228,2.731-6.3,3.986-2.387,1.442-4.027,3.084-4.457,4.462-.374,1.2-1.712,5.873-2.973,10.386l-2.292,8.206,1.171,5.3c2.151,9.732,5.145,12.646,11.381,11.078,4.7-1.182,7.525-3.577,8.563-7.264.659-2.341,1.37-3.115,3.5-3.808,3.2-1.043,4.541-1.081,5.771-.166,1.015.755.658,2-3.887,13.535-3.119,7.916-2.894,8.624,2.449,7.721,4.868-.823,9.318-.191,9.838,1.4.2.619-.127,4.8-.733,9.283-1.083,8.026-1.075,8.206.484,11.164A12.711,12.711,0,0,0-114.215,585c1.8,1.089,2.361,1.087,4.622-.021,3.593-1.76,5.545-1.574,8.04.767,2,1.872,2.278,1.924,3.846.72a11.579,11.579,0,0,0,2.822-3.938c1.4-3.271,3.761-5.571,5.744-5.6a5.565,5.565,0,0,0,3.21-2.145c1.9-2.375,5.255-3.149,3.617-.835-1.375,1.942-2.161,8.187-1.275,10.127.738,1.616.8,1.607,2.139-.337.956-1.384,1.148-2.271.626-2.883-1.246-1.461-.871-2.675,1.448-4.685,2.407-2.086,4.27-1.872,6.347.73,1.523,1.908,9.656,4.487,11.987,3.8,3.549-1.044,13.14,5.792,16.743,11.934,1.716,2.925,7.2,5.868,9.608,5.159,4.958-1.459,11.755,4.365,13.345,11.433.473,2.1,1.187,4.066,1.586,4.357,1.058.773-.527,3.827-3.993,7.693-2.214,2.469-2.743,3.533-2.12,4.263s1.647.09,4.106-2.567c3.576-3.865,4.77-4.257,6.561-2.156,1.09,1.278,1.056,1.538-.437,3.4A5.562,5.562,0,0,1-18.4,626.3c-.663.031-.395.4.637.887,1.417.663,2.157.477,3.628-.917,3.831-3.628,4.731-3.8,8.134-1.574,2.212,1.449,3.1,2.552,2.986,3.718-.31,3.243.342,3.961,2.26,2.488,1.524-1.171,2.57-1.227,7.671-.408,5.426.871,6.136,1.218,8.739,4.269a15.042,15.042,0,0,0,6.837,4.686c3.666,1.249,4.065,1.63,4.73,4.525.964,4.2-.165,8.855-3.221,13.279a45.087,45.087,0,0,0-3.555,6.165,23.627,23.627,0,0,1-3.072,4.945c-1.76,2.063-1.858,2.579-1.419,7.477.857,9.569-3.136,27.42-6.987,31.238-1.254,1.243-2.327,1.535-4.315,1.174-1.634-.3-2.844-.105-3.163.5a11.04,11.04,0,0,1-3.521,2.529A26.4,26.4,0,0,0-7.5,715.3c-2.343,2.346-2.422,2.606-1.633,5.407a13.427,13.427,0,0,1-1.652,10.315A9.237,9.237,0,0,0-11.93,735a10.894,10.894,0,0,1-1.682,4.7c-.925,1.447-2.71,4.761-3.966,7.363-3.09,6.4-4.948,7.511-9.429,5.629-3.889-1.634-5.962-1.829-5.962-.561,0,.478.775,1.283,1.723,1.789s2.424,2.566,3.281,4.578c1.276,3,1.411,4.036.746,5.748-1.03,2.651-4.971,4.877-8.633,4.877-3.244,0-4.049.93-2.928,3.384.692,1.515.226,3.952-1.111,5.821-.108.151-1.244-.359-2.524-1.135-3.056-1.852-4.137-.672-2.593,2.828a6.535,6.535,0,0,0,2.654,3.151c1.429.532,1.445.65.283,2.155a3.764,3.764,0,0,0-.781,2.961c.265.81-.326,2.558-1.448,4.282-1.823,2.8-1.849,3-.68,5.088a7.391,7.391,0,0,0,2.317,2.67c2.185.983,2.547,4.341.881,8.169s-1.925,7.68-.633,9.505c1.174,1.659-2.777,4.891-4.555,3.725Zm-53.469-368.354c1.938-4.749,5.546-8.285,8.451-8.285,2.091,0,2.116.4.2,3.251l-1.505,2.243,1.545,1.466c1.244,1.181,1.887,1.283,3.305.526a4.944,4.944,0,0,0,2.206-2.584c.333-1.23.875-1.518,2.152-1.142a1.756,1.756,0,0,0,2.409-.969c1.474-3.088-2.277-7.037-5.039-5.3-1.976,1.24-4.558-1.227-4.007-3.828a5.948,5.948,0,0,0-.943-3.768c-1.5-2.32-3.781-2.565-8.774-.94a19.048,19.048,0,0,1-4.55,1c-.707-.032-1.1.3-.864.741s.157.808-.166.818a7.537,7.537,0,0,0-2.392,1.645l-1.805,1.626,2.027.9c1.585.706,2.519.606,4.28-.462,2.069-1.254,2.452-1.254,4.71.009a6.579,6.579,0,0,0,4.157.874c.935-.275,1.9-.12,2.144.344s-.772,1.085-2.334,1.394c-4.246.841-6.452,2.914-9.532,8.956-2.572,5.047-2.72,5.655-1.695,6.99,1.006,1.309,1.284,1.33,2.664.2.847-.695,2.357-3.263,3.355-5.706Zm13.181,5.25c2.583-1.544,2.831-1.932,1.921-3s-1.485-1-4.446.538c-3.477,1.8-4.58,4.235-1.921,4.235A12.391,12.391,0,0,0-87.26,458.628ZM-74.4,452.2c1.511-1.241,1.567-1.484.5-2.183-1.569-1.029-6.232.744-6.232,2.37C-80.127,454.064-76.521,453.946-74.4,452.2ZM-19.91,819.477a3.554,3.554,0,0,1,.871-1.7c.479-.561.6-1.021.261-1.021s-1,.628-1.479,1.395c-.687,1.1-1.162,1.2-2.256.451-.783-.533-.973-.955-.437-.969a.548.548,0,0,0,.5-.876c-.474-.9.771-1.143,4.353-.856,3.2.256,3.518.8,1.542,2.625-1.841,1.7-3.356,2.128-3.356.953Zm605.893-21.345q-3.114-2.312,12.963-10.209a55,55,0,0,0,10.134-6.831c4.389-3.889,4.753-4.058,5.622-2.6,1.32,2.21.542,3.809-2.682,5.514a15.129,15.129,0,0,0-4.306,3.508,4.827,4.827,0,0,1-2.958,2.028c-.8,0-2.679,1.289-4.176,2.864-5.126,5.393-11.619,7.94-14.6,5.728Zm-50.775-11.049c-.754-.56-.8-1.136-.181-2.482a12.9,12.9,0,0,0,.8-4.418c0-2.4.165-2.6,1.632-1.991a15.158,15.158,0,0,0,4.172.784c1.4.061,2.792.167,3.1.235,1.2.265-2.011,4.553-4.9,6.537-3.439,2.363-3.3,2.322-4.624,1.336Zm83.835-7.437c-.253-.3.345-1.28,1.328-2.186,1.481-1.365,1.653-1.942,1.006-3.36-.937-2.052.455-4.253,3.677-5.817,2.5-1.212,3.125-3.672,2.455-9.607-.461-4.083-.4-4.338.718-3.25.881.854,1.1,1.931.784,3.894-.344,2.152-.035,3.27,1.5,5.4,1.654,2.3,2.146,2.555,3.432,1.747s1.433-.731,1.029.5a11.12,11.12,0,0,0-.473,1.778,8.573,8.573,0,0,1-2.358,1.749,40.44,40.44,0,0,0-5.623,4.575c-2.92,2.826-5.925,5.11-6.724,5.11a1.5,1.5,0,0,1-.749-.538Zm-76.719-10.985c-1.528-1.906-1.81-1.98-3.278-.852-1.87,1.437-5.385.6-8.2-1.959-1.5-1.364-1.607-1.8-.832-3.5a4.47,4.47,0,0,0,.086-4,12.583,12.583,0,0,1-.8-3.72c0-2.061-1.141-2.159-2.086-.18-.389.815-.915,1.238-1.169.94s.586-1.941,1.867-3.651c3.153-4.209,1.922-5.352-2.242-2.082a15.533,15.533,0,0,0-3.521,3.42c-.142.472-1-.985-1.916-3.239A15.831,15.831,0,0,0,516,743.753c-2.305-1.78-3.087-1.927-7.515-1.41-6.494.758-12.76,2.635-16.861,5.052a25.359,25.359,0,0,1-8.307,2.568,41.486,41.486,0,0,0-9.7,2.692c-3.962,1.748-5.09,1.932-7.1,1.155-2.693-1.042-3.811-3.189-2.069-3.973.631-.284,1.775-2.235,2.544-4.337,1.23-3.364,1.3-4.412.569-8.758A44.348,44.348,0,0,1,467.5,724.2a53,53,0,0,0,.359-9.43,13.82,13.82,0,0,1,.779-5.473c1.151-3.533,1.43-3.764,9.213-7.629,4.414-2.192,8.933-3.985,10.041-3.985,3,0,6.712-3.345,8.759-7.89,1.265-2.809,2.143-3.878,2.9-3.534,2.119.96,2.537.771,2.374-1.07a2.091,2.091,0,0,1,1.193-2.368c.747-.278,2.127-1.827,3.067-3.441a12.048,12.048,0,0,1,4.529-4.263c2.648-1.247,2.912-1.228,4.353.307,2.658,2.832,4.542,3.659,5.441,2.388.437-.618.588-1.367.334-1.664-.831-.974,2.969-6.563,4.827-7.1a25.751,25.751,0,0,0,4.551-2.132c2.348-1.379,3.174-1.47,5.8-.643,5.672,1.785,5.86,2.077,3.75,5.814-2.713,4.806-1.994,6.686,4.661,12.177,3.073,2.535,5.973,4.458,6.446,4.274s1.967-2.126,3.321-4.314a17.239,17.239,0,0,0,2.856-8.656c.42-4.98,2.452-11.907,3.493-11.907.345,0,1.134,2.048,1.755,4.552a18.547,18.547,0,0,0,2.891,6.492c2.265,2.495,3.581,9.47,2.564,13.591-.674,2.731-.544,3.169,1.766,5.953a40.371,40.371,0,0,1,4.819,8.959,70.156,70.156,0,0,0,5.126,10.3l2.8,4.342-.8,6.708a34.209,34.209,0,0,1-3.256,11.817c-2.735,5.677-6.823,11.095-8.978,11.9-.775.288-2.57,2.419-3.99,4.735s-2.9,4.211-3.291,4.211-2.05,1.988-3.688,4.417c-2.732,4.051-3.235,4.422-6.081,4.485a8.157,8.157,0,0,0-5.651,2.346L544,770.748l-1.672-2.086ZM188.553,750.78c-1.536-1.8-1.793-2.722-1.45-5.2a8.147,8.147,0,0,0-1.365-6.088,14.528,14.528,0,0,1-1.782-4c0-.509-1.283-2.94-2.851-5.4-2.424-3.808-2.921-5.329-3.321-10.147a76.119,76.119,0,0,0-6.133-24.371,43.8,43.8,0,0,1-3.266-9.46c-.567-4.094.852-10.189,4.09-17.572l2.154-4.912-1.21-4.272a17.387,17.387,0,0,1-.751-6.419,7.391,7.391,0,0,0-.937-4.849A41.4,41.4,0,0,1,169.2,640.7a18.042,18.042,0,0,0-4.392-8.42c-4.6-5.288-5.2-7.37-3.769-13.125,2.905-11.715-.233-18.547-7.9-17.2-2.985.525-3.1.459-3.521-2.013-.324-1.9-1.2-3.012-3.4-4.33-2.862-1.711-4.086-1.718-7.6-.04-.8.381-4.063,1.7-7.255,2.934-4.8,1.854-6.241,2.093-8.331,1.383-1.979-.673-3.646-.5-7.7.8-4.185,1.346-5.7,1.491-7.964.759-4.719-1.527-12.826-10.093-13.979-14.771-.892-3.619-6.442-12.054-8.331-12.662-1.2-.386-1.348-.685-.613-1.241s.611-.842-.544-1.2c-1.833-.562-2.016-2.319-.243-2.337,1.085-.011,1.111-.133.181-.838-.685-.519-.762-.829-.206-.837.576-.008.357-1.057-.632-3.022-1.392-2.765-1.421-3.13-.357-4.507,3.246-4.2,3.957-13.257,1.49-18.961-1.178-2.723-.42-6.484,2.093-10.394a79.328,79.328,0,0,0,4.106-7.961c2.3-5.084,7.411-12.151,8.8-12.151,1.532,0,6.476-6.23,6.476-8.161a14.587,14.587,0,0,1,5.849-11.433,20.951,20.951,0,0,0,5.072-5.568c1.722-3.266,1.966-3.373,3.972-1.734a12.014,12.014,0,0,0,4.346,1.742c2.445.481,3.614.135,7.255-2.148,6.264-3.927,10.136-4.908,17.3-4.384,4.727.346,6.856.125,9.147-.95,3.375-1.583,6.292-.646,5.5,1.767a3.023,3.023,0,0,0,.322,2.383c.522.737.518,1.792-.013,3.429-.667,2.056-.519,2.668,1.133,4.689a9.3,9.3,0,0,0,4.158,2.854c5.831,1.367,7.489,2.252,8.693,4.642a5.275,5.275,0,0,0,3.95,3.069,18.968,18.968,0,0,1,4.8,1.864c1.956,1.186,2.21,1.143,3.841-.654,1.1-1.208,1.594-2.486,1.337-3.437a5.658,5.658,0,0,1,.382-3.246c1.122-2.459,4.309-2.217,9.286.7,5.421,3.182,15.7,5.452,19.347,4.272a7.567,7.567,0,0,1,4.973-.022c5.013,1.806,7.58.392,8.265-4.551.227-1.642.615-2.985.862-2.985.469,0,.714-2.469.782-7.867.022-1.754.376-3.189.786-3.189.489,0,.465-.616-.07-1.786-.892-1.954-2.7-1.91-7.032.173-2.054.988-2.625.946-4.465-.328-2.385-1.652-4.834-1.9-5.54-.561-.525,1-4.234.3-6.246-1.175-1.445-1.058-2.8-4.208-2.8-6.521a4.59,4.59,0,0,0-1.632-2.961c-1.39-1.147-1.47-1.472-.544-2.183a3.545,3.545,0,0,1,2.736-.381c1.156.319,2.219-.215,3.56-1.788a6.38,6.38,0,0,1,4.519-2.4,9.876,9.876,0,0,0,4.614-1.713c2.4-1.852,7.84-1.337,12.063,1.141,5.695,3.341,10.752,3.145,12.788-.5,1.059-1.895,1.065-2.293.06-4.091-.612-1.1-3.554-3.619-6.536-5.609l-5.423-3.617,1.016-2.3c.559-1.267.833-2.518.61-2.78s-.138-.98.19-1.6a7.839,7.839,0,0,0,.738-2.218c.167-1.288-1-.933-6.773,2.059-3.349,1.736-3.847,2.268-3.1,3.318a3.461,3.461,0,0,0,2.428,1.287c1.191.029.909.43-1.234,1.755-2.6,1.609-2.892,1.63-4.583.331-1.446-1.111-1.635-1.628-.95-2.6s.579-1.331-.5-1.8a5.7,5.7,0,0,1-2.129-1.811c-2.078-3.247-8.671,5.295-10.589,13.718-.9,3.954-.87,4.16.824,5.658l1.758,1.555-3.226.78a12.07,12.07,0,0,1-5.314.111c-2.119-.679-4.8.344-4.8,1.83,0,.437-.494.572-1.1.3a2.122,2.122,0,0,0-2.13.51c-.88.857-.781,1.558.678,4.775,1.58,3.484,1.629,3.961.644,6.278-1.235,2.9-2.384,2.687-4.129-.776-1.216-2.414-1.208-2.47.4-2.737,2.031-.338,2.162-1.854.192-2.223-4.5-.843-6.892-3.619-6.892-7.983a9.518,9.518,0,0,0-5.958-8.306,8.964,8.964,0,0,1-4.1-2.781,10.052,10.052,0,0,0-3.628-2.978,9.937,9.937,0,0,1-3.576-2.89c-.759-1.271-1.258-1.423-2.37-.726a2.981,2.981,0,0,0-1.408,2.1c0,2.208,9.247,12.2,13.767,14.873,4.793,2.836,5.541,3.849,2.211,2.991-2.969-.764-3.777,0-2.762,2.613.713,1.835.6,2.393-.838,4.009l-1.667,1.878.379-2.534c.6-4.022-3.921-9.8-7.672-9.8-1.375,0-6.658-6.007-8.042-9.144-1.479-3.352-3.124-4-5.455-2.147-3.511,2.791-6.144,3.735-8.9,3.189-3.659-.725-5.961.771-5.378,3.494.3,1.422.135,2.056-.549,2.056-.544,0-1.938.956-3.1,2.125a9.312,9.312,0,0,1-2.663,2.126c-.9,0-3.43,5.375-3.433,7.284,0,1.826-2.84,5.423-5.578,7.072a10.652,10.652,0,0,1-4.509.954c-2.213,0-3.119.427-3.726,1.757-.795,1.741-.819,1.737-2.678-.442-1.744-2.045-2.749-2.557-6.269-3.2-1.85-.335-2.162-5.244-.779-12.236a27.161,27.161,0,0,0,.645-7.444c-.687-3.211,1.465-5.1,5.065-4.456,8.313,1.5,13.176,1.58,14.316.243,1.566-1.836,2.273-7.891,1.317-11.286-.623-2.214-1.481-3.12-4.039-4.265-3.762-1.684-3.842-3.314-.163-3.357a8.8,8.8,0,0,0,4.493-1.524c1.07-.822,2.252-1.271,2.628-1,1.026.743,4.909-1.881,6.2-4.189a5.829,5.829,0,0,1,2.727-2.5c.877-.262,3.227-2.259,5.222-4.438,2.828-3.089,4.313-4.057,6.738-4.4,3-.421,6.026-3.317,4.608-4.417-.882-.684-1.618-4.8-1.127-6.3a7.545,7.545,0,0,1,2.282-2.721l1.859-1.428-.477,3.5c-.414,3.037-.309,3.466.8,3.249a10.545,10.545,0,0,0,2.921-1.309c1.376-.886,1.714-.843,2.076.265.622,1.9-1.107,4.133-2.3,2.972-.659-.641-1.077-.618-1.445.08-.38.72-.677.681-1.113-.147-.327-.621-.762-.934-.965-.7s.376,1.531,1.289,2.873c1.538,2.261,1.831,2.369,4.023,1.473,1.877-.767,2.779-.715,4.377.254,1.8,1.094,2.414,1.042,5.882-.5,3.039-1.354,4.236-1.527,5.581-.809a2.933,2.933,0,0,0,3.3-.049c3.263-1.977,4.167-3.467,3.762-6.2-.6-4.055.5-5.384,3.4-4.1,1.971.872,2.547.838,3.438-.207.943-1.106.862-1.514-.684-3.443-1.487-1.856-1.591-2.317-.685-3.034.588-.465,2.792-.632,4.9-.37,3.853.478,8.655-1.286,7.819-2.873-.733-1.39-5.156-1.791-8.9-.808-3.323.872-4.2.8-6.742-.545-3.956-2.091-4.422-4.538-1.709-8.971,3.492-5.706,4.131-7.524,3.136-8.929-1.473-2.081-2.92-1.4-6.285,2.946-1.778,2.3-4.2,4.648-5.385,5.223a8.155,8.155,0,0,0-3.253,3.541c-.986,2.236-.985,2.7.015,4.493a6.309,6.309,0,0,0,2.586,2.544c2.225.828,1.785,2.382-1.4,4.936a12.288,12.288,0,0,0-2.9,4.937,9.435,9.435,0,0,1-3.782,5.31c-2.585,1.749-2.7,1.756-4.131.241a9.1,9.1,0,0,1-1.906-3.888,16.157,16.157,0,0,0-2.421-5.116l-1.985-2.787-2.517,1.8a9.3,9.3,0,0,1-3.968,1.783c-2.3-.025-4.968-2.94-5.146-5.629a18.951,18.951,0,0,0-.658-3.885c-.65-1.9,2.6-5.478,5.975-6.57s10.261-6.743,11.432-9.392a24.889,24.889,0,0,1,3.922-5.27c1.636-1.72,2.975-3.506,2.975-3.969s1.551-1.49,3.446-2.282,5.079-2.228,7.074-3.192a23.12,23.12,0,0,1,9.432-1.927c6.848-.205,11.326.859,15.021,3.569,1.854,1.36,3.317,1.824,4.718,1.5,2.5-.587,15.858,4.264,16.414,5.964s-3.27,3.321-6.565,2.764c-1.509-.255-4.63-.936-6.936-1.514-3.1-.778-4.4-.8-5.008-.095s-.3,1.231,1.163,2.013a8.24,8.24,0,0,1,3.027,3.434c1.469,3.329,6.173,6.044,8.6,4.962,2.332-1.039,2.316-1.367-.145-2.932-2.276-1.447-1.225-1.76,1.633-.486,2.282,1.017,4.867-.248,4.265-2.087-.282-.861.511-1.483,2.748-2.155,4.787-1.438,5.137-1.643,4.74-2.781-1.5-4.3-1.523-4.18.662-3.888,1.166.156,2.018.741,1.921,1.318s.512,1.468,1.35,1.994c1.259.79,2.253.509,5.716-1.619,5.078-3.12,9.031-4.137,10.505-2.7.822.8,2.185.805,6.13.025,2.79-.552,5.39-.773,5.777-.493a.806.806,0,0,0,1.18-.391c.572-1.084-1.009-3.545-1.875-2.918-1.045.757-4.476-.6-3.73-1.474s20.942,4.634,22.15,6.051c.815.955,3.393-.319,3.393-1.676,0-.457-1.44-1.652-3.2-2.654-5.457-3.108-5.807-8.085-.675-9.595,2.978-.876,4.266.135,8.386,6.581,5.348,8.37,5.212,7.944,3.464,10.821-1.294,2.13-1.372,2.629-.474,3.032,1.7.765,5.341-1.912,5.854-4.305.6-2.8-.521-5.194-3.2-6.816-2.1-1.276-3.628-3.613-3.628-5.567,0-.666.789-.832,2.358-.5,2.352.5,4.3-.5,9.623-4.946a9.129,9.129,0,0,1,5.353-1.743c4.211-.112,5.574-.941,4.363-2.653-.475-.671-.713-1.4-.528-1.614.927-1.086,12.871-3.043,15.621-2.56,2.647.465,3.466.214,5.644-1.734,1.4-1.253,2.548-2.615,2.548-3.027,0-1.04-6.34-.947-6.892.1-.76,1.442-1.745.94-1.468-.747.234-1.425-.38-1.657-5.664-2.139-14.43-1.317-15.6-1.626-13.872-3.655,1.522-1.784,5.255-1.75,8.38.078a11.145,11.145,0,0,0,4.713,1.361c1.312,0,2.587.383,2.833.851s1.517.85,2.824.85c3.618,0,10.614,1.832,10.175,2.665-.214.405.463.737,1.5.737a9.775,9.775,0,0,1,4.214,1.465c1.717,1.083,4.116,1.473,9.214,1.5,5.48.026,7.3.356,8.887,1.61,1.1.868,1.99,1.821,1.985,2.118s-1.68,1.62-3.721,2.94c-4.928,3.187-3.886,4.577,2.075,2.766,3.861-1.173,4.748-1.18,7.945-.067,2.623.913,4.26,1.03,6.039.432s3.6-.469,6.691.471c3.227.98,4.9,1.08,6.944.414,4.667-1.52,10.409-1.09,13.74,1.027,1.656,1.052,4.709,3,6.786,4.328,3.68,2.353,3.841,2.379,6.393,1.038,2.137-1.123,3.329-1.217,6.48-.511,3.132.7,4.273.616,6.037-.453,1.726-1.046,2-1.561,1.345-2.491-1.274-1.8,3.246-2.468,8.8-1.3,2.543.534,5.767,1.067,7.164,1.185a20.044,20.044,0,0,1,6.064,2.073c2.956,1.56,5.187,1.913,13.836,2.192,8.207.264,10.82.649,12.8,1.886,2.01,1.256,4.3,1.575,11.919,1.662,7.01.08,10.15.47,12.229,1.517,3.356,1.691,4.7,1.071,2.872-1.327-1.314-1.725-1.306-1.727,3.762-1.137,8.492.989,18.679,3.167,22.128,4.732a33.916,33.916,0,0,0,7.605,2.1,25.092,25.092,0,0,1,7.741,2.642c2.839,1.686,3.761,1.873,5.584,1.128,2.493-1.019,4.11-.285,7.917,3.591l2.365,2.408-1.783.524c-1.789.526-6.539-.852-8.176-2.373a1.33,1.33,0,0,0-1.5-.36c-.344.249-2.04-.119-3.771-.818-4.053-1.637-5.852-1.022-4.007,1.369,1.261,1.633,1.233,1.667-1.171,1.471-4.5-.368-3.262,1.19,3.342,4.209,3.591,1.642,6.683,3.16,6.871,3.373.681.773-1.564,1.73-3.2,1.364-1.793-.4-6.213,1.855-6.213,3.172a5.991,5.991,0,0,1-1.552,2.49c-1.426,1.557-1.721,1.593-3.628.436-1.785-1.082-2.355-1.093-4.071-.08a21.22,21.22,0,0,1-4.168,1.791,8.877,8.877,0,0,0-3.076,1.492c-1.46,1.421,1.115,5.555,4.74,7.613a7.966,7.966,0,0,1,3.83,4.022A38.277,38.277,0,0,0,544.9,409.5c.968,2.016.959,2.3-.08,2.771-.762.343-.986,1.03-.654,2a19.019,19.019,0,0,1,.7,3.607,17.112,17.112,0,0,0,.711,3.538c.371,1.011.065,1.58-1.079,2.006-1.273.474-2.131-.1-4.224-2.81a45.939,45.939,0,0,0-5.355-5.728,41.126,41.126,0,0,1-5.974-7.386c-3.149-4.911-3.214-5.135-2.169-7.5a13.853,13.853,0,0,0,1.1-4.4,11.885,11.885,0,0,1,1.023-4.068c1.048-2.219.644-3.991-1.6-7-1.471-1.978-4.088-.5-3.428,1.942.608,2.246-1.257,2.973-3.4,1.327a13.494,13.494,0,0,0-4.758-1.871c-2.9-.542-3.111-.438-3.862,1.871a11.824,11.824,0,0,0-.407,4.723c.332,1.953.1,2.352-1.612,2.793a8.006,8.006,0,0,1-4.79-.852,6.51,6.51,0,0,0-4.683-.736,38.975,38.975,0,0,1-7.819.7c-5.164.06-6.159.324-7.728,2.053a15.349,15.349,0,0,0-2.645,5.953,27.348,27.348,0,0,1-1.89,5.863c-.995,1.8-.9,1.981,1.945,3.682,3.086,1.846,6.451,2.332,9,1.3,1.967-.8,7.969,4.69,9.843,9a11.116,11.116,0,0,0,2.82,4.1c2.963,1.859,3.565,14.057,1.087,22.032-1.716,5.522-3.636,7.327-6.456,6.07a16.922,16.922,0,0,0-2.2-.873,18.424,18.424,0,0,0-1.794,3.489c-1.12,2.52-1.339,3.789-.786,4.57,1.057,1.493.275,3.436-1.839,4.565-.976.521-1.774,1.318-1.774,1.771s2.27,2.655,5.044,4.893c3.529,2.847,5.415,5.034,6.28,7.283.68,1.768,1.1,3.354.941,3.526a38.93,38.93,0,0,1-3.3,2.085l-3,1.773-1.805-4.858c-2.021-5.437-3.754-7.624-6.807-8.587-1.538-.485-2.073-1.173-2.073-2.662,0-1.365-.753-2.525-2.352-3.623-2.329-1.6-2.375-1.6-4.854.2s-2.509,1.8-3.271.13a8.889,8.889,0,0,1-.768-2.985,2.96,2.96,0,0,0-1.355-2.152c-1.109-.7-1.808-.275-3.846,2.309a25.3,25.3,0,0,1-3.9,4.1c-1.2.8-1.267,1.141-.438,2.312a19.622,19.622,0,0,0,4.1,3.422c2.736,1.793,3.26,1.895,4.183.813.877-1.028,1.591-1.066,4.239-.223l3.184,1.013-1.774,1.39c-3.291,2.578-4.329,3.932-4.8,6.259-.385,1.91-.155,2.484,1.307,3.266.976.521,2.46,2.6,3.3,4.622a13.816,13.816,0,0,0,3.718,5.194c2.655,1.839,3.425,3.792,1.892,4.8-1.43.938-.747,2.34,1.14,2.34,2.26,0,2.273,1.58.089,10.7-2.645,11.044-5.032,14.729-11.279,17.408a28.208,28.208,0,0,1-6.65,2.059c-2.783.181-4.94,1.562-6.823,4.367l-1.494,2.227-.7-2.149c-.909-2.8-2.994-3.508-5.987-2.024a9.632,9.632,0,0,0-5.28,6.334c-.653,2.51,1.658,6.924,5.484,10.476,3.141,2.916,6.665,10.234,7.492,15.558.72,4.631-.555,7.671-3.977,9.48-1.559.824-3.017,2.175-3.241,3-.538,1.987-3.759,4.461-4.35,3.34a4.075,4.075,0,0,1-.021-2.422,6.1,6.1,0,0,0-.026-2.953c-.357-1.092-.754-1.19-1.9-.472-1.193.749-1.653.559-2.617-1.079-2.368-4.024-9.23-10.492-11.133-10.492-.67,0-.928.945-.814,2.977a35.55,35.55,0,0,1-.632,7.093c-.717,3.689-.643,4.365.707,6.506a17.156,17.156,0,0,1,1.965,4.527c.256,1.194,2.354,3.921,4.754,6.177,4,3.76,4.421,4.5,6.1,10.749.994,3.69,1.808,7.073,1.808,7.516,0,1.443-1.516.858-4.678-1.8-3.27-2.753-5.358-7.108-7.1-14.8-.756-3.342-1.585-4.775-3.938-6.8-2.885-2.488-2.973-2.706-2.74-6.823.132-2.339.459-5.654.727-7.367.377-2.411.065-4.139-1.38-7.654a59.146,59.146,0,0,1-2.7-8.522c-1.021-4.893-2.463-5.712-5.013-2.848a9.193,9.193,0,0,1-2.369,2.153c-1.155,0-2.741-2.881-2.361-4.287.691-2.553-3.559-11.452-6.047-12.659a7.974,7.974,0,0,1-3.438-4.428c-1.447-3.761-3.07-5.2-4.691-4.16a26.8,26.8,0,0,1-5.233,1.687c-4.2,1.009-5.7,2.5-5.129,5.076.212.949-.523,1.865-2.284,2.849A8.65,8.65,0,0,0,384.8,546.7a5,5,0,0,1-2.213,2.634,6.792,6.792,0,0,0-2.623,2.893,24.551,24.551,0,0,1-4.484,5.3c-2.448,2.206-3.212,3.44-3.091,4.991.711,9.069-.38,16.658-3.044,21.164-2.6,4.4-2.781,4.518-4.979,3.344-1.21-.646-1.955-1.909-2.263-3.836a69.17,69.17,0,0,0-3.247-9.891c-9.277-23.357-10.648-27.814-9.858-32.031.534-2.85-.747-7.151-1.985-6.664a1.782,1.782,0,0,0-.922,1.557c-.062,3.882-3.782,4.478-6.688,1.071l-1.926-2.257,1.657-.718c1.864-.808,1.693-2.988-.2-2.589-.674.142-2.216-.719-3.427-1.914a9.339,9.339,0,0,0-2.823-2.172c-.342,0-.829-.77-1.084-1.71-.669-2.47-4.517-4.619-6.446-3.6-1.736.918-17.484.726-20.12-.245a12.083,12.083,0,0,1-3.9-3.556c-2.163-2.9-2.2-2.914-5.441-1.888-3.074.971-3.521.88-7.663-1.571-3.579-2.118-4.651-3.26-5.755-6.132-1.409-3.664-4.54-6.317-6.443-5.461-.6.27-1.3,1.609-1.556,2.977-.368,1.964.007,3.241,1.786,6.076a27.272,27.272,0,0,1,3,6.841c.882,3.841,2.625,4.984,4.069,2.669.872-1.4,1.107-1.446,1.7-.351a3.559,3.559,0,0,1,.452,2.122c-.4,1.47,3.783,3.889,5.736,3.315.987-.291,3.1-2.262,4.687-4.38,2.506-3.338,3.382-3.563,2.953-.76-.288,1.887.978,4.1,3.074,5.368,3.237,1.962,7.748,6.333,7.748,7.508a7.262,7.262,0,0,1-1.884,3.047,23.387,23.387,0,0,0-3.315,5.332c-1.911,4.37-7.452,10.763-9.328,10.763-2.168,0-5.394,2.146-6.678,4.444a11.224,11.224,0,0,1-3.554,3.411c-6.9,4.036-15.2,8.127-17.535,8.641-2.5.549-2.7.417-4.024-2.643a34.066,34.066,0,0,1-1.932-7.9,14.2,14.2,0,0,0-2.625-7.471,12.015,12.015,0,0,1-2.087-3.614c0-.451-1.309-2.4-2.909-4.334a19.965,19.965,0,0,1-4.088-8.293,27.656,27.656,0,0,0-2.931-7.33c-6.658-9.693-8.63-13.111-9.622-16.68-1.315-4.73-2.428-5.494-2.941-2.02l-.364,2.466L231.2,509c-3.782-5.6-4.258-3.053-.708,3.78,1.68,3.234,4.358,8.941,5.952,12.683a87.388,87.388,0,0,0,4.59,9.436,11.5,11.5,0,0,1,1.693,5.371c0,3.2.816,5.2,4.02,9.857a19.783,19.783,0,0,1,2.829,6.071c.343,1.882,1.743,3.851,4.754,6.682,4.575,4.3,7.54,8.792,8.276,12.534a5.866,5.866,0,0,0,2.651,3.654c2.023,1.227,2.735,1.193,9.129-.431a49.362,49.362,0,0,0,8.979-3L285.4,574.4l.485,3.367c.441,3.059-.034,4.533-5.2,16.145-5.553,12.486-5.813,12.9-11.335,18.008a55.284,55.284,0,0,0-7.228,7.826c-.867,1.428-3.642,5.284-6.166,8.569-7.366,9.587-8.367,18.018-3.482,29.32,1.241,2.87,1.726,5.043,1.431,6.417a22.068,22.068,0,0,0,.348,6.412c.687,3.754.609,4.758-.58,7.488-1.715,3.94-3.08,5.356-7.875,8.173-2.095,1.231-3.809,2.6-3.809,3.045s-1.469,2.747-3.265,5.117-3.265,4.694-3.265,5.165a20.732,20.732,0,0,0,1.5,4.293c2.466,5.667.809,9.774-5.1,12.645-2.492,1.21-3.311,3.681-2.694,8.135.323,2.333.118,3.11-1.01,3.818a13.521,13.521,0,0,0-3.128,4.041c-2.974,5.475-11.523,15.163-15.407,17.46-3.241,1.916-4.07,2.085-6.451,1.314-2.1-.68-3.793-.572-7.313.465-5.7,1.679-5.1,1.748-7.3-.84Zm95.559-271.264c1.873-1.135,2.141-1.76,2.141-5,0-2.322-.423-4.113-1.136-4.807a14.305,14.305,0,0,1-2.25-3.63c-1.013-2.3-1.009-2.478.048-2,1.4.628,3.338-.127,3.338-1.3a10.956,10.956,0,0,0-1.5-3.31c-1.243-2.046-1.741-2.318-2.9-1.59-.939.589-1.4.595-1.4.016,0-.475-1.295-1.638-2.878-2.584-3.5-2.095-4.749-4.415-3.656-6.808.827-1.811,3.781-3.08,5.042-2.166,1.7,1.232,2.2-.584.8-2.894-3.4-5.6-8.141-5.233-14.017,1.091-3.792,4.081-4.121,5.165-1.977,6.511a3.079,3.079,0,0,1,1.451,2.175c0,.7,1.29,2.906,2.868,4.912,3.633,4.62,4.3,6.731,3.849,12.2l-.362,4.4,4.984,3c2.741,1.649,5.082,3.017,5.2,3.04A13.576,13.576,0,0,0,284.112,479.516ZM264.125,717.083c-2.049-1.362-2.34-2.081-2.875-7.1-.428-4.012-.249-4.884,1.8-8.784,2.081-3.964,2.23-4.727,1.771-9.033-.663-6.217.465-9.484,3.547-10.276,2.9-.747,9.187-7.249,10.693-11.066l1.151-2.917.8,2.057c2.012,5.177,1.807,7.45-1.693,18.8-1.873,6.075-3.882,13.342-4.465,16.148-1.866,8.982-2.926,11.148-5.981,12.221-3.253,1.143-2.939,1.146-4.745-.055ZM621.509,702.3c-2.315-2.969-3.7-5.517-3.7-6.8,0-2.854.391-2.6,2.484,1.583a33.809,33.809,0,0,0,4.021,6.112,10.525,10.525,0,0,1,2.2,3.163c0,1.636-1.544.385-5.006-4.055Zm-323.648-1.207a.735.735,0,1,1,.725.851A.8.8,0,0,1,297.861,701.089Zm382.057-1.551a1.172,1.172,0,0,1,.32-1.452c1.078-.781,1.46-.16.74,1.2C680.594,700.022,680.22,700.109,679.918,699.538Zm-376.979-1.375c0-.206.327-.612.726-.9s.726-.12.726.375a.83.83,0,0,1-.726.9C303.266,698.538,302.939,698.369,302.939,698.163Zm358.112-8.632c-.707-2.159.19-2.915,2.19-1.847,1.726.922,1.764,1.063.561,2.094C662.12,691.22,661.589,691.172,661.052,689.531Zm4.6-3.782c-1.418-1.027-.436-1.847,1.82-1.521,1.767.256,1.808.35.546,1.262a2.088,2.088,0,0,1-2.366.259Zm-33.874-3.121c-1.49-3.761-.968-5.206.573-1.586,1.6,3.767,1.631,3.89.878,3.881C632.927,684.92,632.274,683.887,631.775,682.628Zm2.778-.6c-.031-.9.14-1.4.381-1.116a1.969,1.969,0,0,1,.057,1.63c-.232.679-.4.477-.438-.514Zm59.063-8.166c-.664-1.259-.034-1.9,1.515-1.548,1.133.259,1.146.4.121,1.392-.816.793-1.278.837-1.637.156Zm-428.766-4.237c-.247-.468-.1-.851.32-.851a.815.815,0,0,1,.768.851c0,.468-.144.85-.32.85S265.1,670.089,264.851,669.621Zm318.5-7.99c-4.591-1.7-6.673-3.274-8.48-6.422-2.064-3.6-5.842-6.319-7.771-5.6-.78.29-2.093,1.868-2.917,3.506-1.4,2.789-1.673,2.942-4.224,2.411a10.257,10.257,0,0,1-4.652-2.674c-1.347-1.472-2.38-1.937-3.432-1.546a3.356,3.356,0,0,1-2.664-.2c-1-.654-.9-.961.7-2.186,1.848-1.419,1.851-1.438.611-4.486-1-2.448-2.369-3.723-6.861-6.371-3.089-1.821-6.581-3.31-7.76-3.31a2.589,2.589,0,0,1-1.78-4.657c1.209-1.036,1.032-1.294-2.122-3.09-3.349-1.907-3.4-1.988-1.8-3.029a7.4,7.4,0,0,1,3.235-1.1c1.7-.032,3.85,2.843,3.85,5.147a9.1,9.1,0,0,0,1.568,3.733c1.545,2.3,1.584,2.312,2.721.649a20.873,20.873,0,0,1,4.5-3.934l3.345-2.247,4.636,2.452c2.55,1.348,6.169,3.1,8.043,3.891a49.032,49.032,0,0,1,8.33,5.23c5.171,3.981,7.417,7.337,6.129,9.157-1.05,1.483,3.075,8.24,7.345,12.031,4.693,4.167,4.614,4.552-.544,2.645Zm31.574-.069c-.572-.808-.627-1.3-.146-1.3.877,0,1.9,1.614,1.4,2.2-.183.214-.745-.194-1.25-.907Zm-121.9-3.462c-1.051-.682-1.355-1.183-.724-1.193,1.3-.021,3.368,1.4,2.88,1.967C494.988,659.1,494.018,658.747,493.021,658.1Zm12.267-1.124c2.057-3.387,5.277-4.837,8.254-3.716,2.169.817,2.2.885.481.965-1.019.048-3.4,1.235-5.285,2.638-4.307,3.2-5.347,3.236-3.45.112Zm105.266,1.163c-.98-1.385-.746-1.558,1.029-.76.631.284,1.148.858,1.148,1.276C612.73,659.832,611.555,659.554,610.554,658.14Zm3.4-.75a10.3,10.3,0,0,1-.45-2.934c.031-.94.282-.725.746.635a6.863,6.863,0,0,1,.45,2.934c-.138.484-.473.2-.746-.635Zm56.094.8c0-.206.326-.612.726-.9s.726-.12.726.375a.83.83,0,0,1-.726.9C670.372,658.565,670.045,658.4,670.045,658.19Zm-185.552-3.572a.929.929,0,0,1-.5-1.228c.554-1.051,5.2-.993,5.766.073a.538.538,0,0,1-.5.862,13.054,13.054,0,0,0-2.4.378,4.108,4.108,0,0,1-2.362-.084Zm10.771-.638c-1.318-1.862.2-2.429,3.619-1.35,3.443,1.087,3.432,1.257-.137,2.012C496.892,655.034,495.873,654.84,495.264,653.979Zm108.929-.517c-.5-.942-.591-1.7-.2-1.7s1.056.766,1.483,1.7.517,1.7.2,1.7S604.691,654.4,604.193,653.462Zm4.543-.856c-1.94-2.513-.9-2.908,1.095-.417.936,1.168,1.368,2.123.962,2.123s-1.332-.768-2.057-1.706Zm-136.028-.148a49.992,49.992,0,0,1-8.127-2.078c-1.876-.722-4.086-1.061-4.912-.753-1.661.618-8.727-1.817-8.727-3.007,0-2.719,6.5-2.925,9.96-.316,1.29.974,2.307,1.039,5.036.322,3.022-.794,3.652-.7,5.427.843a7.706,7.706,0,0,0,2.739,1.741c1.434,0,5.789,2.845,5.421,3.542a1.29,1.29,0,0,1-1.239.592c-.475-.065-2.986-.463-5.58-.885Zm130.228-4.1c-.722-.935-.987-1.7-.588-1.7s1.316.766,2.039,1.7.987,1.7.588,1.7-1.316-.766-2.039-1.7Zm-4.575-1.077a11.64,11.64,0,0,1-1.216-3.605c-.414-2.256-.367-2.353.406-.846a27.494,27.494,0,0,0,1.907,3.1c.6.818.746,1.613.343,1.9C599.421,648.115,598.773,647.864,598.361,647.282ZM583,644.578l-1.8-1.17,2.794-.615a12.654,12.654,0,0,0,5.249-3.141c1.474-1.517,2.45-2.066,2.443-1.375-.017,1.729-.909,3.062-3.621,5.407-2.833,2.45-2.7,2.426-5.063.893ZM446.9,641.266c-2.666-1.78-7.473-8.667-9.038-12.948a50.931,50.931,0,0,0-4.3-8.451,61.979,61.979,0,0,1-3.879-6.8,29.253,29.253,0,0,0-4.136-5.953c-3.5-3.945-5.659-8.091-4.19-8.061,1.9.039,6.8,3.233,8.906,5.8,5.8,7.1,6.987,8.359,9.724,10.336,2.642,1.908,3.892,3.894,4.018,6.379a8.925,8.925,0,0,0,1.669,2.977c.895,1.169,2.582,3.369,3.751,4.888a15.3,15.3,0,0,1,2.593,5.266C452.866,639.207,449.768,643.181,446.9,641.266ZM300.763,640.7a.735.735,0,1,1,.725.85A.8.8,0,0,1,300.763,640.7Zm191.892-.008a4.287,4.287,0,0,1-.007-2.513,5.77,5.77,0,0,0-.667-3.65c-1.01-1.808-1-2.186.1-4.033a21.656,21.656,0,0,0,1.756-6.687c.365-3.155,1.087-5.292,2.244-6.65,1.583-1.856,1.981-1.939,5.541-1.147,3.056.679,4.259.6,5.922-.413,2.786-1.689,2.989-1.613,2.064.767-1.176,3.026-3.526,3.993-6,2.471-4.424-2.717-10.294,1.321-7.2,4.952,1.138,1.334,1.768,1.456,3.877.747,3.614-1.215,5.039-.992,2.795.438-2.54,1.618-3.023,3.414-1.713,6.382a13.962,13.962,0,0,1,1.083,4.654c0,1.936-.174,2.089-1.452,1.287a9.325,9.325,0,0,1-2.561-4.021c-1.1-3.086-1.119-3.1-2.527-1.447-1.235,1.447-1.318,2.09-.642,4.959.611,2.593.57,3.45-.192,4.016-1.282.952-1.877.925-2.424-.112Zm99.54-4.536a11.6,11.6,0,0,0-3.481-3.581c-1.23-.746-2.074-1.547-1.874-1.781,1.128-1.322,7.424,4.684,6.887,6.571-.165.58-.823.061-1.532-1.209ZM478.264,633.33a4.634,4.634,0,0,0-3.277-.743c-1.8.671-8.975-1.039-9.685-2.31-.565-1.012-2.227-7.243-3.116-11.684a5.7,5.7,0,0,1,.571-3.722c.83-1.33,1.26-1.431,2.575-.606,1.388.871,1.682.722,2.443-1.236a9.488,9.488,0,0,1,3.52-3.814,8.921,8.921,0,0,0,3.56-4.147,5.544,5.544,0,0,1,3.377-3.516,11.31,11.31,0,0,0,4.364-3.864c1.041-1.6,2.279-2.908,2.752-2.908s1.9,1.263,3.181,2.808l2.321,2.807-1.861,2.933c-2.114,3.332-2,6.2.392,10.141l1.45,2.387-1.807,1.388a4.436,4.436,0,0,0-1.8,2.431c.007,1.948-4.643,13.176-5.808,14.029-.811.594-1.756.482-3.149-.374Zm42.146-.016c-1.5-.46-1.71-1.965-.272-1.965a21.533,21.533,0,0,1,3.412.566c2.045.479,2.2.666,1,1.216a4.622,4.622,0,0,1-4.138.183ZM635.946,622.47c0-.206.327-.612.725-.9s.726-.12.726.375a.83.83,0,0,1-.726.9C636.273,622.845,635.946,622.676,635.946,622.47Zm-118.078-2.307a2.191,2.191,0,0,1-.112-2.569,3.411,3.411,0,0,0,.3-2.4c-.654-1.241.985-4.252,2.315-4.252,1.067,0,1.062.146-.047,1.582-.959,1.242-1.065,2.063-.5,3.82,1.152,3.551-.1,6-1.956,3.823Zm-364.383-2.8c0-.206.327-.611.726-.9s.725-.12.725.375a.83.83,0,0,1-.725.9C153.812,617.742,153.485,617.573,153.485,617.367Zm503.138-2.176c-.247-.468-.1-.85.32-.85a.815.815,0,0,1,.768.85c0,.468-.144.851-.32.851S656.87,615.658,656.623,615.19Zm-498.785-8.029c0-.206.326-.612.725-.9s.726-.12.726.375a.83.83,0,0,1-.726.9C158.165,607.536,157.839,607.367,157.839,607.161Zm348.975-12.787c-1.384-3.784-1.568-3.954-3.7-3.406s-2.2.48-1.4-1.263c.659-1.443,1.269-1.729,2.83-1.327,1.5.387,2.466,0,3.94-1.606a7.315,7.315,0,0,0,1.966-3.647c.022-2.147,2.717,5.052,3.332,8.9.467,2.922.409,3.081-.725,1.98-1.683-1.634-3.3.061-1.922,2.012.551.778.622,1.312.174,1.312a5.9,5.9,0,0,0-1.9.513c-.842.379-1.523-.53-2.6-3.47Zm-132.28,1.5c-.811-1.544-1.272-8.475-.686-10.314.621-1.95.668-1.927,2.516,1.276,2.215,3.838,2.924,6.3,2.193,7.613-.7,1.258-3.576,2.277-4.023,1.425Zm162.019-4.4a1.93,1.93,0,0,1,.725-1.376c.4-.289.726-.143.726.325a1.93,1.93,0,0,1-.726,1.376C536.879,592.091,536.552,591.945,536.552,591.477Zm113.9-.1c0-.468.144-.851.32-.851s.522.383.768.851.1.85-.32.85A.815.815,0,0,1,650.457,591.377Zm-164.69-4.914a25.454,25.454,0,0,1,3.232-4.89c2.6-3.408,3.239-3.89,3.265-2.482.018.961-1.073,3.162-2.423,4.89C487.55,586.913,485.767,588,485.767,586.463Zm15.714-2.269a4.251,4.251,0,0,1,.119-2.725c.511-1.071.724-1.081,1.44-.07.641.906.613,1.551-.119,2.724C502.021,585.566,501.931,585.57,501.481,584.194ZM-54.1,580.88c.444-.628.593-1.393.331-1.7s.2-.56,1.027-.56c1.147,0,1.414.4,1.125,1.7a2.025,2.025,0,0,1-1.835,1.7c-1.135,0-1.277-.251-.647-1.141Zm560.453-.225c-.27-.886-.624-1.9-.785-2.248a.411.411,0,0,1,.39-.638c.724,0,1.743,3.492,1.2,4.124C506.983,582.1,506.619,581.54,506.349,580.655ZM499,578.436c-1.019-1.439-.026-3.488,1.5-3.089.956.25.991.6.224,2.267C499.979,579.219,499.66,579.372,499,578.436Zm8.578-2.923c-.833-1.241-1.393-2.4-1.245-2.571.59-.691,2.63.832,3.715,2.773C511.713,578.7,509.6,578.527,507.575,575.513Zm-11.927-3.292a4.81,4.81,0,0,1-1.175-2.356c0-.538.716-.139,1.592.888s1.4,2.087,1.175,2.356S496.294,572.978,495.648,572.221ZM-73.84,572.1a2.58,2.58,0,0,1-.484-1.446c0-.533.338-.483.859.128.472.553.69,1.2.484,1.446S-73.574,572.411-73.84,572.1Zm-4.111-1.134c0-.468.144-.85.32-.85s.522.383.768.85.1.851-.32.851A.815.815,0,0,1-77.951,570.965Zm34.1-1.7c0-.468.144-.851.32-.851s.522.383.768.851.1.851-.32.851A.815.815,0,0,1-43.852,569.264Zm546.8-.13a4.188,4.188,0,0,0-3.064-.362c-1.4.413-2.373-.249-5-3.421-3.715-4.481-4.437-6.37-3.347-8.757a12.365,12.365,0,0,0,.766-4.234c0-4.617,2.638-4.43,4.571.323,1.071,2.633,1.078,3.2.071,6.023-1.084,3.041-1.062,3.176.871,5.542,1.4,1.709,2.444,2.289,3.548,1.964a2.266,2.266,0,0,1,2.488.841C505.152,568.9,504.582,570.217,502.945,569.134Zm-551.15-5.348c0-.206.326-.612.726-.9s.726-.12.726.375a.83.83,0,0,1-.726.9C-47.879,564.161-48.205,563.992-48.205,563.786Zm113.9-3.027a.735.735,0,1,1,.725.85A.8.8,0,0,1,65.7,560.759Zm-116.081-3.3a1.93,1.93,0,0,1,.726-1.376c.4-.289.726-.143.726.325a1.931,1.931,0,0,1-.726,1.376C-50.055,558.072-50.382,557.925-50.382,557.458Zm-6.162-3.493c-.254-.482.037-.625.683-.334,1.257.565,1.487,1.175.443,1.175A1.538,1.538,0,0,1-56.543,553.965Zm115.35-.01c-.247-.468-.1-.85.32-.85a.815.815,0,0,1,.768.85c0,.468-.144.851-.32.851S59.054,554.423,58.807,553.955Zm-112.453-1.7c-.247-.468-.1-.85.32-.85a.815.815,0,0,1,.768.85c0,.468-.144.851-.32.851S-53.4,552.722-53.646,552.254Zm3.265,0c0-.468.144-.85.32-.85s.522.383.768.85.1.851-.32.851A.815.815,0,0,1-50.382,552.254Zm-49.878-2.264a1.568,1.568,0,0,1-.907-1.209c0-1.226,3.2-.91,4.758.469,1.338,1.186,1.3,1.247-.768,1.209A10.05,10.05,0,0,1-100.26,549.99Zm18.358-.482a4.691,4.691,0,0,0-3.194-.258,6.54,6.54,0,0,1-3.781-.312c-1.565-.734-1.427-.82,1.2-.749,3.857.106,4.887-.631,3.9-2.79-.7-1.533-.489-1.649,2.972-1.649,3.348,0,8.178,1.8,9,3.353C-71.266,548.135-80.6,550.36-81.9,549.508Zm13.916.538c-.86-1.008.209-2.043,2.109-2.043,1.141,0,1.719.4,1.533,1.063C-64.678,550.256-67.222,550.94-67.985,550.045ZM456.9,548.693c-1.921-2.252-.02-4.943,3.492-4.943,1.557,0,1.558.015.222,2.7C459.059,549.57,458.129,550.133,456.9,548.693Zm-518.891-.175c0-.184.49-.555,1.088-.824s1.088-.119,1.088.334a.987.987,0,0,1-1.088.824C-61.5,548.852-61.99,548.7-61.99,548.518Zm-31.362-6.1a8.091,8.091,0,0,0-3.4-.526c-2.273-.037-2.819-.3-2.261-1.087.539-.761-.235-1.775-2.9-3.8-5.23-3.972-8.149-4.749-11.663-3.1-3.294,1.545-3.547,1.589-3.547.616,0-1.78,5.774-3.738,9.932-3.367,3.976.354,6.2,1.346,14.01,6.243,6.417,4.025,6.424,4.032,4.353,4.725C-91.185,542.909-92.842,543.019-93.352,542.422Zm5.244-7.177c1.407-1.066,2.177-1.066,2.177,0,0,.468-.735.845-1.632.837C-88.884,536.072-88.988,535.911-88.108,535.245Zm577.792-1.508a8.493,8.493,0,0,1-1.678-2.575c-.729-1.622-.653-2.41.442-4.609,1.692-3.4,2.835-3.82,3.384-1.255.578,2.7-1.092,9.257-2.149,8.439ZM-83.344,532.6c.484-.919,3.217-1.023,3.217-.122,0,.351-.814.693-1.809.76s-1.628-.22-1.408-.638Zm-14.347-8.2c-1.16-1.561-.991-3.62.3-3.62.412,0,.583.747.379,1.66s0,1.818.46,2.01.637.6.4.9S-97.08,525.228-97.691,524.406Zm4.214-6.681a2.66,2.66,0,0,1-.107-1.859c.2-.234.574.22.832,1.009a2.66,2.66,0,0,1,.107,1.859C-92.844,518.967-93.218,518.513-93.477,517.725Zm-4.547-.766a1.336,1.336,0,0,1,1.382-1.276c1.228,0,1.261.142.294,1.276a4.888,4.888,0,0,1-1.382,1.276C-97.891,518.235-98.023,517.661-98.023,516.959Zm608.457-18.645a9.319,9.319,0,0,0-1.761-3.664c-2.3-3.2-1.485-5.341,1.238-3.25a6.677,6.677,0,0,1,2.259,6.781C511.622,499.854,510.434,499.945,510.434,498.314ZM-52.558,493.2c0-.206.326-.612.726-.9s.726-.12.726.375a.83.83,0,0,1-.726.9C-52.232,493.571-52.558,493.4-52.558,493.2Zm567.035-1.045a2.21,2.21,0,0,1,2.3-2.819c1.153-.016,1.174,1.885.036,3.219-1.183,1.387-1.79,1.283-2.341-.4Zm6.629-3.1c-1.409-2.52-3.4-2.866-7.954-1.383-1.852.6-3.128.61-3.99.021-.7-.476-.884-.877-.416-.891a8.431,8.431,0,0,0,3.037-2.182c1.551-1.53,2.688-2.008,3.913-1.648,1.3.382,2.7-.349,5.648-2.946,5.74-5.056,6.259-6.65,3.923-12.052-2.241-5.185-1.617-6.854,1.7-4.554,2.417,1.674,4.695,6.468,4.033,8.49-.238.728.117,3.011.789,5.074.951,2.919,1.041,4.147.407,5.537-.932,2.041-3.525,3.405-6.473,3.405-1.652,0-2.146.5-2.686,2.7l-.662,2.7-1.274-2.279Zm-293.909-2.9c-.866-1.015-.405-1.928.973-1.928a2.255,2.255,0,0,0,1.857-.85c.674-1.279,1.824-1.022,1.388.31-.448,1.367-3.589,3.205-4.218,2.468Zm-24.74-1.472-2.176-1.168,2.9-.057c3.614-.072,6.277.723,5.753,1.717-.584,1.107-3.981.849-6.479-.491Zm-29.308-8.484c-2.9-1.743-3.04-1.96-1.525-2.425,1.815-.557,5.833.136,5.751.991a12.528,12.528,0,0,1-.544,1.94C176.386,477.967,176.033,477.918,173.149,476.188Zm-14.542-9.2c-.628-2.111-.578-2.92.238-3.876,1.475-1.729,2.621-.514,2.621,2.779,0,3.89-1.82,4.588-2.859,1.1Zm-17.013.707c.515-1.572,2.722-1.838,2.278-.274a2.191,2.191,0,0,1-1.509,1.337c-.842.191-1.074-.13-.769-1.063Zm379.078-9.708c-1.328-2.186-1.365-2.589-.384-4.231.963-1.612.96-2.1-.033-4.345-1.632-3.7-1.4-3.924,1.427-1.393a21.654,21.654,0,0,0,6.136,3.525q6.123,2.132,2.939,3.328a2.2,2.2,0,0,0-1.461,1.778c0,.925-.5,1.085-2,.636-3.828-1.148-4.916-.868-4.67,1.2.3,2.538-.188,2.413-1.959-.5Zm-360.9,1a2.065,2.065,0,0,1,.6-3.142c.786-.354,1.088.093,1.088,1.61C161.466,459.493,160.756,460.136,159.773,458.984Zm356.3-17.931a47.067,47.067,0,0,1-3.3-6.593A66.928,66.928,0,0,0,505.736,423c-2.986-3.9-4.5-6.492-3.935-6.713.508-.2,1.6.691,2.421,1.976a41.347,41.347,0,0,0,8.333,9.172c3.215,2.777,4.8,5.348,2.73,4.415-2.392-1.076-1.795,1.478,1.3,5.564a38.476,38.476,0,0,1,3.281,4.728C519.866,443.179,517.062,442.373,516.069,441.053Zm-530.9-1.488c0-.7.316-1.276.7-1.276s.515.574.285,1.276-.546,1.276-.7,1.276S-14.832,440.267-14.832,439.565Zm-3.791-2.745-2.7-.332,5.086-5.9c2.8-3.247,5.452-5.9,5.9-5.9.472,0,.33.625-.337,1.489-1.51,1.956-.48,4.154,2.28,4.865a4.534,4.534,0,0,1,2.87,2.587c.745,1.917.619,2.112-1.895,2.93-2.637.859-5.785.934-11.2.268Zm-176.783-6.1c-2.513-2.752-2.793-3.911-1.127-4.661,1.492-.671,4.247,1.517,5.291,4.2,1.1,2.819,1.076,2.925-.537,2.925C-192.534,433.186-194.167,432.076-195.406,430.719ZM124.1,426.4a38.526,38.526,0,0,1,3.49-1.7c2.471-1.045,2.061-2.158-1.064-2.891-2.144-.5-2.219-.63-.993-1.682.73-.626,1.115-1.541.855-2.035s.481-1.286,1.7-1.786c1.2-.489,2.176-1.267,2.176-1.728,0-1.964-1.512-5.269-2.352-5.141-1.937.3-2.834-.1-2.522-1.125a4.441,4.441,0,0,0-.328-2.552c-.934-2.129,1.212-6.53,3.207-6.578.3-.007.463.456.363,1.03s.585,1.179,1.521,1.346l1.7.3-1.627,2.03-1.627,2.03,1.834.817c1.969.877,3.866,3.736,5.8,8.735.926,2.4,1.534,3.021,2.615,2.69,2.217-.68,2.48,1.082.4,2.679-1.409,1.082-1.677,1.692-1.059,2.416s-.6,1.209-4.82,1.923c-3.1.525-6.788,1.2-8.185,1.506C123.248,427.107,122.993,427.04,124.1,426.4Zm-12.235-4.7a6.829,6.829,0,0,1,.629-3.828c.682-1.546.814-2.642.358-2.973-1.257-.911-.786-2.073,1.061-2.617a5.662,5.662,0,0,0,2.628-1.717c.967-1.365,5.436-1.616,6.107-.343a3.766,3.766,0,0,1-.683,2.741,9.575,9.575,0,0,0-1.13,4.153c0,1.9-.5,2.464-3.083,3.516-1.7.69-3.613,1.523-4.259,1.851C112.736,422.867,112.159,422.589,111.868,421.7Zm13.323-8.45c0-.206.327-.612.726-.9s.725-.12.725.375a.83.83,0,0,1-.725.9C125.517,413.625,125.191,413.456,125.191,413.25Zm-321.979-4.1c-.711-1-.665-1.472.226-2.339,1.474-1.434,2.206-.461,1.348,1.793-.592,1.555-.807,1.629-1.574.546Zm-1.135-6.4a1.867,1.867,0,0,1,.635-1.9c1.18-1.148,1.426-.248.434,1.587C-197.233,403.148-197.653,403.269-197.923,402.756Zm-46.894-.542c0-.6,2.2-1.645,5.321-2.531,1.183-.336,1.883-.255,1.647.191a4.428,4.428,0,0,1-2.419,1.25,22.248,22.248,0,0,0-3.28,1.051C-244.246,402.492-244.817,402.509-244.817,402.214Zm431.132-9.563c-1.338-.633-1.1-1.609.423-1.744a1.153,1.153,0,0,1,1.33,1.095c0,1.266-.251,1.359-1.753.649ZM26.885,388.3c-4.591-2.935-6.786-7.444-5.455-11.209a5.016,5.016,0,0,0,.072-4.167c-1.2-2.632.366-5.715,4.375-8.607a15.975,15.975,0,0,0,4.224-4.167c1.162-2.546.127-6.908-1.9-7.988-1.024-.547-1.581-1.411-1.354-2.1.515-1.573-1.9-6.947-4.306-9.58-1.771-1.938-2.532-2.131-8.6-2.177-8.256-.063-9.794-.6-9.658-3.378.057-1.154.275-2.1.485-2.1s3.148-.4,6.53-.887a40.856,40.856,0,0,0,13-4.312c7.451-3.725,8.018-3.8,25.8-3.307a74.93,74.93,0,0,0,17.412-1.642c6.178-1.22,10.724-1.68,13.179-1.333a18.287,18.287,0,0,0,6.811-.438c3.957-1.249,14.236.253,18.28,2.671,2.39,1.43,3.655,1.618,7.688,1.148,4.357-.508,4.686-.442,3.376.686a13.9,13.9,0,0,1-5.441,1.865c-4.762.735-9.138,4.714-7.978,7.255.5,1.1.142,2.031-1.476,3.848a13.506,13.506,0,0,0-2.519,3.812c-.505,1.866-6.919,5.338-10.1,5.467-3.532.144-3.9,1.024-1.17,2.788a41.164,41.164,0,0,1,4.186,3.155l1.84,1.64-1.663.721c-1.275.553-2.309.2-4.431-1.527-2.879-2.339-5.977-2.351-4.324-.016.644.91.489,1.264-.717,1.634-2.7.826-.789,2.461,2.184,1.872,1.892-.375,2.957-.177,3.549.659.7.995-.214,1.455-5.5,2.757a59.4,59.4,0,0,1-10.334,1.633c-4.077.071-7.015,1.443-11.337,5.294-1.409,1.256-4.4,2.5-7.909,3.286-7.325,1.643-9.8,3.543-14.214,10.911-3.545,5.918-5.683,8.123-7.893,8.144-.6.006-2.721-1.033-4.716-2.309Zm-51.442-5.688a16.862,16.862,0,0,1-4.243-4.651c-1.514-2.8-2.91-3.159-7-1.785a5,5,0,0,1-3.557.1c-2.148-1.409,1.732-2.8,6.054-2.163,3.287.481,4.017.344,4.4-.827.77-2.353,4.295-4.039,6.255-2.992a3.943,3.943,0,0,0,3.844-.063c2.073-.927,2.1-1.011.748-2.177a5.269,5.269,0,0,0-1.965-1.212c-.306,0-1.41-1.709-2.454-3.8a18.109,18.109,0,0,0-4.348-5.572c-2.29-1.659-2.593-1.688-4.641-.447-1.791,1.085-2.825,1.161-5.658.416a15.465,15.465,0,0,0-5.917-.376c-2.337.512-6.619-.828-6.619-2.073,0-2.285,6.144-7.414,9.794-8.176l2.9-.605-2.074,2.591c-2.862,3.574-1.785,5.219,1.322,2.02a12.257,12.257,0,0,1,5.062-3.053c2.24-.493,3.2-.171,6.013,2.013,3.743,2.906,4.031,2.984,6.142,1.66,1.271-.8,1.742-.578,3.123,1.451a11.693,11.693,0,0,0,5.166,3.7c3.314,1.229,3.54,1.5,3.54,4.176a5,5,0,0,0,1.658,4.252c4.869,4.082,4.763,3.913,3.709,5.891-1.445,2.711-2.585,2.908-5.782,1-2.224-1.33-3.2-1.513-4.315-.81-1.37.86-1.385,1.043-.282,3.543.905,2.052.988,3.088.373,4.67-.758,1.95-.879,1.98-2.937.733-4.046-2.453-6.77-.839-3,1.775,1.182.819,1.985,1.8,1.784,2.183-.7,1.333-4.292.626-7.1-1.4Zm149.022,1.1c0-.39.49-.709,1.088-.709s1.088.319,1.088.709-.49.709-1.088.709S124.465,384.106,124.465,383.716Zm-176.377-4.574c-1.43-.882-2.541-.957-4.544-.309-3.406,1.1-4.6.3-2.868-1.943,2.212-2.866,3.713-3.429,6.381-2.4,3,1.162,4.336,2.889,3.526,4.568C-49.934,380.133-50.286,380.145-51.912,379.143Zm144.092-.387c-1.2-.923-2.721-1.476-3.386-1.229-.916.34-1.119.045-.838-1.216.432-1.935,6.806-4.728,8.961-3.926a8.312,8.312,0,0,0,4.267-.511c2.5-.88,3.169-.813,4.862.487l1.961,1.506-1.747,1.6c-1.475,1.347-4.209,2.516-10.816,4.622C94.847,380.277,93.377,379.678,92.18,378.755Zm-196.975-15.876a26.621,26.621,0,0,1-5.4-2.223l-3.586-1.887,5.037-.425c2.771-.234,5.037-.808,5.037-1.276s-1.959-1.056-4.353-1.306c-3.161-.331-3.757-.564-2.177-.85,2.646-.48,2.837-1.823.363-2.556-1.782-.528-1.769-.56.738-1.826a16.673,16.673,0,0,1,13.069-1.187c3.365,1.172,3.891,1.167,5.478-.052,1.122-.862,1.788-1.006,1.846-.4.05.522.132,1.395.181,1.941.168,1.842,1.616,1.6,3.342-.551,1.6-1.995,4.37-2.95,4.363-1.5a15.434,15.434,0,0,1-1.434,3.39l-1.432,2.752,2.341,1.432,2.341,1.432-3.844,2.057c-3.469,1.856-4.18,1.962-7.29,1.088-3.015-.848-3.88-.751-6.917.776-3.431,1.724-4.154,1.835-7.7,1.177Zm29.1-.6c-.655-.926-.385-1.381,1.309-2.2a5.648,5.648,0,0,1,3.776-.426c1.571.585,1.535.677-.853,2.168-3.047,1.9-3.2,1.919-4.231.462Zm200.162-3.936c1.407-1.066,2.177-1.066,2.177,0,0,.468-.735.845-1.632.837C123.689,359.171,123.585,359.01,124.465,358.344Zm133.13-2.359c-3.709-1.718-3.633-1.624-2.554-3.148.5-.713.633-1.308.285-1.323s.02-.605.818-1.312a4.606,4.606,0,0,0,1.463-1.887c.025-1.258,2.979-4.575,5.066-5.69a23.424,23.424,0,0,1,6.892-1.6c2.594-.241,6.068-.684,7.72-.983,1.759-.318,3.192-.188,3.457.314.514.976-.467,1.39-6.1,2.576-5.588,1.177-8.946,3.011-11.158,6.092-2.33,3.247-2.408,5.3-.268,7.047l1.632,1.335-2.177-.038a15.7,15.7,0,0,1-5.079-1.382Zm-379.98-2.466c-1.17-1.372-.9-1.67,4.71-5.273,6.577-4.221,9.882-4.781,15.782-2.676l3.265,1.165-4.353,1.012c-3.56.828-11.1,3.785-17.062,6.689A2.27,2.27,0,0,1-122.384,353.518Zm52.414-1.1c0-.453-.9-1.427-2-2.166l-2-1.342,2.671.492c1.9.35,2.843.142,3.265-.72.5-1.025,5.119-3.075,6.96-3.091.31,0,.057,1.142-.561,2.544-1.456,3.3-8.345,6.836-8.345,4.283Zm11.3-2.483c-1.039-1.972,6.06-5.023,9.075-3.9,2.2.818.729,2.223-3.1,2.97a23.338,23.338,0,0,0-4.315,1.205,1.238,1.238,0,0,1-1.656-.274Zm23.166-6.263c-4.788-.447-8.8-.909-8.9-1.028-.649-.706.969-3,2.711-3.848,1.712-.831,2.5-.721,4.845.677,2.285,1.363,3.757,1.59,8,1.231a27.671,27.671,0,0,1,7.255.17l2.054.609-2.539,1.591a9.052,9.052,0,0,1-3.628,1.5c-.6-.05-5.006-.456-9.794-.9ZM173.276,340.2c-3.564-2.139-3.908-3.109-1.108-3.127a5.657,5.657,0,0,0,3.083-.931c.941-.793.928-.858-.093-.479a1.971,1.971,0,0,1-2.025-.551c-.642-.752-.976-.739-1.4.056-.388.736-1.184.823-2.69.294-3.826-1.343-4.679-1.939-4.679-3.271,0-1.128.959-1.231,6.892-.742,4.519.372,6.892.269,6.892-.3,0-1.674,2.013-.848,2.547,1.046l.539,1.914.321-1.914c.177-1.052.788-1.914,1.359-1.914a1.032,1.032,0,0,0,1.038-1.021c0-.794.193-.794.871,0,.506.594,2.934,1.021,5.8,1.021,5.187,0,6.405,1.087,2.946,2.629-1.8.8-4.924.575-8.351-.605-.7-.24-1.268-.124-1.265.258,0,.785,4.082,3.672,5.185,3.672a3.286,3.286,0,0,1,1.736,1.193c.873,1.024.866,1.261-.052,1.674-.588.265-1.07.068-1.07-.437,0-.594-.923-.716-2.611-.344-1.828.4-2.462.292-2.114-.368a2.4,2.4,0,0,0-.38-2.18c-.93-1.314-3.6-1.716-3.6-.542a14.686,14.686,0,0,1-2.358,3.752l-2.358,3.056-3.063-1.838Zm-192.46-1.871c-1.258-.866-3.037-1.116-5.8-.818-2.586.279-4.575.038-5.652-.683-1.485-1-1.122-1.109,3.409-1.066,5.666.054,8.154-1.368,5.086-2.906-1.458-.731-1.245-.8,1.254-.391,3.262.53,4.53-.495,2.753-2.224-1.9-1.844.189-2.416,6.932-1.9q6.259.475,7.867-.533c2.053-1.288,1.248-2.928-1.1-2.238-1.622.477-12.88-.306-12.4-.863.34-.4,16.289-2.13,26.762-2.905,5.432-.4,11.472-.964,13.422-1.247l3.545-.516-5.852,3.3c-5.487,3.09-14.41,6.1-18.076,6.1-.892,0-3.458,1.148-5.7,2.551s-4.529,2.551-5.078,2.551a22.084,22.084,0,0,0-5.274,2.541c-2.351,1.4-4.274,2.532-4.274,2.521s-.816-.581-1.814-1.267Zm-14.147-7.77c-3.516-.912-3.645-1.255-1.061-2.825,3.766-2.288,7.33-2.875,8.951-1.473,1.283,1.11,1.209,1.281-1.311,3.024C-29.38,331.1-30.445,331.3-33.332,330.554Z" transform="translate(0)" fill="#202020"/>
  </g>
</svg>
