<svg xmlns="http://www.w3.org/2000/svg" width="477.425" height="450.61" viewBox="0 0 477.425 450.61">
  <g id="Group_9" data-name="Group 9" transform="translate(-356 -3511)">
    <g id="lightgreyborderimage" transform="translate(356.015 3514.42)">
      <line id="Line_1" data-name="Line 1" x2="198.04" transform="translate(0.04 130.19)" fill="none" stroke="#f58a83" stroke-miterlimit="10" stroke-width="2"/>
      <g id="Group_5" data-name="Group 5">
        <path id="Path_1" data-name="Path 1" d="M58.99,223.32H83.34L71.17,244.41Z" fill="none" stroke="#f58a83" stroke-miterlimit="10" stroke-width="2"/>
        <path id="Path_2" data-name="Path 2" d="M58.99,265.62l12.18-21.09,12.17,21.09" fill="none" stroke="#f58a83" stroke-miterlimit="10" stroke-width="2"/>
        <circle id="Ellipse_1" data-name="Ellipse 1" cx="10.28" cy="10.28" r="10.28" transform="translate(60.89 199.28)" fill="none" stroke="#f58a83" stroke-miterlimit="10" stroke-width="2"/>
      </g>
      <g id="Group_6" data-name="Group 6">
        <path id="Path_3" data-name="Path 3" d="M131.08,232.15l6.1,11.46,6.11,11.46H118.87l6.1-11.46Z" fill="none" stroke="#f58a83" stroke-miterlimit="10" stroke-width="2"/>
        <path id="Path_4" data-name="Path 4" d="M131.08,231.87,126,228.02l-5.07-3.85h20.3l-5.08,3.85Z" fill="none" stroke="#f58a83" stroke-miterlimit="10" stroke-width="2"/>
        <path id="Path_5" data-name="Path 5" d="M124.99,265.62l6.09-8.44,6.09,8.44" fill="none" stroke="#f58a83" stroke-miterlimit="10" stroke-width="2"/>
        <circle id="Ellipse_2" data-name="Ellipse 2" cx="10.28" cy="10.28" r="10.28" transform="translate(120.8 199.28)" fill="none" stroke="#f58a83" stroke-miterlimit="10" stroke-width="2"/>
        <circle id="Ellipse_3" data-name="Ellipse 3" cx="58.51" cy="58.51" r="58.51" transform="translate(40.55 172.44)" fill="none" stroke="#f58a83" stroke-miterlimit="10" stroke-width="2"/>
      </g>
      <g id="Group_7" data-name="Group 7">
        <path id="Path_6" data-name="Path 6" d="M93.77,247.29h17.46l-8.73,9.14Z" fill="none" stroke="#f58a83" stroke-miterlimit="10" stroke-width="2"/>
        <path id="Path_7" data-name="Path 7" d="M93.77,265.62l8.73-9.14,8.73,9.14" fill="none" stroke="#f58a83" stroke-miterlimit="10" stroke-width="2"/>
        <ellipse id="Ellipse_4" data-name="Ellipse 4" cx="8.68" cy="7.89" rx="8.68" ry="7.89" transform="translate(93.82 228.93)" fill="none" stroke="#f58a83" stroke-miterlimit="10" stroke-width="2"/>
      </g>
      <path id="Path_8" data-name="Path 8" d="M98.57,372.67l13.21,12.76,13.21,12.76H72.16l13.2-12.76Z" fill="none" stroke="#f58a83" stroke-miterlimit="10" stroke-width="2"/>
      <rect id="Rectangle_3" data-name="Rectangle 3" width="48.57" height="48.57" transform="translate(74.77 397.62)" fill="none" stroke="#f58a83" stroke-miterlimit="10" stroke-width="2"/>
      <path id="Path_9" data-name="Path 9" d="M95.08,295.87c2.38,1.88,15.29,12.45,17.2,31.1A46.18,46.18,0,0,1,104,358" transform="translate(0.08 2.58)" fill="none" stroke="#f58a83" stroke-miterlimit="10" stroke-width="2"/>
      <path id="Path_10" data-name="Path 10" d="M119.97,351.54l-8.63,4.77-8.62,4.76.18-9.85.19-9.86" fill="none" stroke="#f58a83" stroke-miterlimit="10" stroke-width="2"/>
      <line id="Line_2" data-name="Line 2" x2="198.04" transform="translate(278.3 130.19)" fill="none" stroke="#f58a83" stroke-miterlimit="10" stroke-width="2"/>
      <g id="Group_8" data-name="Group 8">
        <path id="Path_11" data-name="Path 11" d="M295.1,221.22h24.36l-12.18,21.1Z" fill="none" stroke="#f58a83" stroke-miterlimit="10" stroke-width="2"/>
        <path id="Path_12" data-name="Path 12" d="M295.1,263.52l12.18-21.09,12.18,21.09" fill="none" stroke="#f58a83" stroke-miterlimit="10" stroke-width="2"/>
        <circle id="Ellipse_5" data-name="Ellipse 5" cx="10.28" cy="10.28" r="10.28" transform="translate(297 197.18)" fill="none" stroke="#f58a83" stroke-miterlimit="10" stroke-width="2"/>
      </g>
      <path id="Path_13" data-name="Path 13" d="M334.73,230.06l6.1,11.46,6.11,11.46H322.52l6.1-11.46Z" fill="none" stroke="#f58a83" stroke-miterlimit="10" stroke-width="2"/>
      <path id="Path_14" data-name="Path 14" d="M334.73,229.77l-5.08-3.85-5.07-3.85h20.3l-5.08,3.85Z" fill="none" stroke="#f58a83" stroke-miterlimit="10" stroke-width="2"/>
      <path id="Path_15" data-name="Path 15" d="M328.64,263.52l6.09-8.44,6.09,8.44" fill="none" stroke="#f58a83" stroke-miterlimit="10" stroke-width="2"/>
      <circle id="Ellipse_6" data-name="Ellipse 6" cx="10.28" cy="10.28" r="10.28" transform="translate(324.45 197.18)" fill="none" stroke="#f58a83" stroke-miterlimit="10" stroke-width="2"/>
      <path id="Path_16" data-name="Path 16" d="M427.78,246.6h17.46l-8.73,9.13Z" fill="none" stroke="#f58a83" stroke-miterlimit="10" stroke-width="2"/>
      <path id="Path_17" data-name="Path 17" d="M427.78,264.92l8.73-9.14,8.73,9.14" fill="none" stroke="#f58a83" stroke-miterlimit="10" stroke-width="2"/>
      <ellipse id="Ellipse_7" data-name="Ellipse 7" cx="8.68" cy="7.89" rx="8.68" ry="7.89" transform="translate(427.83 228.23)" fill="none" stroke="#f58a83" stroke-miterlimit="10" stroke-width="2"/>
      <rect id="Rectangle_4" data-name="Rectangle 4" width="48.57" height="48.57" transform="translate(278.3 105.91)" fill="none" stroke="#f58a83" stroke-miterlimit="10" stroke-width="2"/>
      <rect id="Rectangle_5" data-name="Rectangle 5" width="34" height="48.57" transform="translate(285.39 105.91)" fill="none" stroke="#f58a83" stroke-miterlimit="10" stroke-width="2"/>
      <rect id="Rectangle_6" data-name="Rectangle 6" width="17" height="48.57" transform="translate(295.1 105.91)" fill="none" stroke="#f58a83" stroke-miterlimit="10" stroke-width="2"/>
      <rect id="Rectangle_7" data-name="Rectangle 7" width="0.01" height="48.57" transform="translate(303.6 105.91)" fill="none" stroke="#f58a83" stroke-miterlimit="10" stroke-width="2"/>
      <rect id="Rectangle_8" data-name="Rectangle 8" width="48.57" height="48.57" transform="translate(427.84 105.91)" fill="none" stroke="#f58a83" stroke-miterlimit="10" stroke-width="2"/>
      <rect id="Rectangle_9" data-name="Rectangle 9" width="34" height="48.57" transform="translate(434.92 105.91)" fill="none" stroke="#f58a83" stroke-miterlimit="10" stroke-width="2"/>
      <rect id="Rectangle_10" data-name="Rectangle 10" width="17" height="48.57" transform="translate(444.64 105.91)" fill="none" stroke="#f58a83" stroke-miterlimit="10" stroke-width="2"/>
      <rect id="Rectangle_11" data-name="Rectangle 11" width="0.01" height="48.57" transform="translate(453.13 105.91)" fill="none" stroke="#f58a83" stroke-miterlimit="10" stroke-width="2"/>
      <path id="Path_18" data-name="Path 18" d="M320.55,161.22a16.45,16.45,0,0,1,7.66,10.31A16.18,16.18,0,0,1,326.38,183" transform="translate(0.08 2.58)" fill="none" stroke="#f58a83" stroke-miterlimit="10" stroke-width="2"/>
      <path id="Path_19" data-name="Path 19" d="M322.47,173.26l-1.5-4.74-1.5-4.74,4.85,1.07,4.86,1.07" fill="none" stroke="#f58a83" stroke-miterlimit="10" stroke-width="2"/>
      <path id="Path_20" data-name="Path 20" d="M450,163.13c-1.51,1.39-9.73,9.28-13.11,24.76a55.54,55.54,0,0,0,.47,26.54" transform="translate(0.08 2.58)" fill="none" stroke="#f58a83" stroke-miterlimit="10" stroke-width="2"/>
      <path id="Path_21" data-name="Path 21" d="M447.34,174.22l1.35-4.25,1.35-4.26-4.37.96-4.36.96" fill="none" stroke="#f58a83" stroke-miterlimit="10" stroke-width="2"/>
      <text id="past" transform="translate(60.88 13.58)" fill="#707070" font-size="16" font-family="Poppins-Regular, Poppins"><tspan x="0" y="0">past</tspan></text>
      <text id="us" transform="translate(0.04 115.58)" fill="#707070" font-size="16" font-family="Poppins-Regular, Poppins"><tspan x="0" y="0">us</tspan></text>
      <text id="mx" transform="matrix(1, -0.006, 0.006, 1, 0.08, 161.08)" fill="#707070" font-size="16" font-family="Poppins-Regular, Poppins"><tspan x="0" y="0">mx</tspan></text>
      <text id="present" transform="translate(340.82 13.58)" fill="#707070" font-size="16" font-family="Poppins-Regular, Poppins"><tspan x="0" y="0">present</tspan></text>
    </g>
  </g>
</svg>
