<?xml version="1.0" encoding="utf-8"?>
<!-- Generator: Adobe Illustrator 22.1.0, SVG Export Plug-In . SVG Version: 6.00 Build 0)  -->
<svg version="1.1" id="Layer_1" xmlns="http://www.w3.org/2000/svg" xmlns:xlink="http://www.w3.org/1999/xlink" x="0px" y="0px"
	 width="477.3px" height="444.6px" viewBox="0 0 477.3 444.6" style="enable-background:new 0 0 477.3 444.6;" xml:space="preserve"
	>
<style type="text/css">
	.st0{fill:none;stroke:#F58A83;stroke-width:2;stroke-miterlimit:10;}
	.st1{fill:#888A8C;}
	.st2{font-family:'Poppins-Regular';}
	.st3{font-size:16px;}
</style>
<title>borderdetnetionpink</title>
<line class="st0" x1="0" y1="127.6" x2="198" y2="127.6"/>
<g>
	<polygon class="st0" points="58.9,220.7 83.3,220.7 71.1,241.8 	"/>
	<polyline class="st0" points="58.9,263 71.1,242 83.3,263 	"/>
	<circle class="st0" cx="71.1" cy="207" r="10.3"/>
</g>
<g>
	<polygon class="st0" points="131,229.6 137.1,241 143.2,252.5 131,252.5 118.8,252.5 124.9,241 	"/>
	<polygon class="st0" points="131,229.3 125.9,225.4 120.8,221.6 131,221.6 141.1,221.6 136.1,225.4 	"/>
	<polyline class="st0" points="124.9,263 131,254.6 137.1,263 	"/>
	<circle class="st0" cx="131" cy="207" r="10.3"/>
	<circle class="st0" cx="99" cy="228.4" r="58.5"/>
</g>
<g>
	<polygon class="st0" points="93.7,244.7 111.1,244.7 102.4,253.9 	"/>
	<polyline class="st0" points="93.7,263 102.4,253.9 111.1,263 	"/>
	<ellipse class="st0" cx="102.4" cy="234.2" rx="8.7" ry="7.9"/>
</g>
<polygon class="st0" points="98.5,370.1 111.7,382.9 124.9,395.6 98.5,395.6 72.1,395.6 85.3,382.9 "/>
<rect x="74.7" y="395" class="st0" width="48.6" height="48.6"/>
<path class="st0" d="M95.1,295.9c2.4,1.9,15.3,12.5,17.2,31.1c1,11-1.9,22-8.3,31"/>
<polyline class="st0" points="119.9,349 111.3,353.7 102.6,358.5 102.8,348.6 103,338.8 "/>
<line class="st0" x1="278.2" y1="127.6" x2="476.3" y2="127.6"/>
<g>
	<polygon class="st0" points="295,218.6 319.4,218.6 307.2,239.7 	"/>
	<polyline class="st0" points="295,260.9 307.2,239.9 319.4,260.9 	"/>
	<circle class="st0" cx="307.2" cy="204.9" r="10.3"/>
</g>
<polygon class="st0" points="334.6,227.5 340.8,238.9 346.9,250.4 334.6,250.4 322.4,250.4 328.5,238.9 "/>
<polygon class="st0" points="334.6,227.2 329.6,223.3 324.5,219.5 334.6,219.5 344.8,219.5 339.7,223.3 "/>
<polyline class="st0" points="328.6,260.9 334.6,252.5 340.7,260.9 "/>
<circle class="st0" cx="334.6" cy="204.9" r="10.3"/>
<polygon class="st0" points="427.7,244 445.2,244 436.4,253.1 "/>
<polyline class="st0" points="427.7,262.3 436.4,253.2 445.2,262.3 "/>
<ellipse class="st0" cx="436.4" cy="233.5" rx="8.7" ry="7.9"/>
<rect x="278.2" y="103.3" class="st0" width="48.6" height="48.6"/>
<rect x="285.3" y="103.3" class="st0" width="34" height="48.6"/>
<rect x="295" y="103.3" class="st0" width="17" height="48.6"/>
<rect x="303.5" y="103.3" class="st0" width="0" height="48.6"/>
<rect x="427.8" y="103.3" class="st0" width="48.6" height="48.6"/>
<rect x="434.8" y="103.3" class="st0" width="34" height="48.6"/>
<rect x="444.6" y="103.3" class="st0" width="17" height="48.6"/>
<rect x="453" y="103.3" class="st0" width="0" height="48.6"/>
<path class="st0" d="M320.5,161.2c3.8,2.3,6.6,6,7.7,10.3c0.8,3.9,0.2,8-1.8,11.5"/>
<polyline class="st0" points="322.4,170.7 320.9,165.9 319.4,161.2 324.2,162.3 329.1,163.3 "/>
<path class="st0" d="M450,163.1c-1.5,1.4-9.7,9.3-13.1,24.8c-2,8.8-1.8,17.9,0.5,26.5"/>
<polyline class="st0" points="447.3,171.6 448.6,167.4 450,163.1 445.6,164.1 441.2,165 "/>
<text transform="matrix(1 0 0 1 60.8 11)" class="st1 st2 st3">past</text>
<text transform="matrix(1 0 0 1 -4.004532e-02 113)" class="st1 st2 st3">us</text>
<text transform="matrix(1 -5.585025e-03 5.585025e-03 1 0 158.5)" class="st1 st2 st3">mx</text>
<text transform="matrix(1 0 0 1 340.74 11)" class="st1 st2 st3">present</text>
</svg>
